<svg xmlns="http://www.w3.org/2000/svg" xml:space="preserve" width="339.857" height="114.235" style="shape-rendering:geometricPrecision;text-rendering:geometricPrecision;image-rendering:optimizeQuality;fill-rule:evenodd;clip-rule:evenodd" viewBox="0 0 8991520 3022289"><defs><style>.fil3{fill:#ca1c1d}.fil0{fill-rule:nonzero}.fil1{fill:#727271}.fil1,.fil2{fill-rule:nonzero}.fil0,.fil2{fill:#ca1c1d}</style></defs><g id="Capa_x0020_1"><path d="M3566256 2374357c-84525 0-159990-18659-226396-55987-66406-37318-118823-89455-157241-156411-38418-66966-57627-144891-57627-233806s19209-166570 57627-232986c38418-66406 90835-118273 157241-155591s141871-55987 226396-55987c73546 0 139952 16469 199228 49397s106744 82325 142421 148191q53517 98784 53517 246975c0 98784-17289 181119-51867 246975s-81505 115533-140782 149011q-88914 50217-202518 50217zm13169-138312c54887 0 104554-12619 149011-37868 44457-25248 79585-61196 105374-107844 25798-46647 38698-100714 38698-162180 0-62566-12899-116633-38698-162180-25788-45557-60916-80955-105374-106204-44457-25248-94124-37868-149011-37868-55977 0-105924 12619-149831 37868-43907 25248-79035 60646-105374 106204-26348 45547-39518 99614-39518 162180 0 61466 13169 115533 39518 162180 26338 46647 61466 82595 105374 107844 43907 25248 93854 37868 149831 37868m298022 128432v-235456l9879-202518-16469-202518v-581215h158071v1221707z" class="fil0"/><path id="_1" d="M4717167 2374357c-93304 0-175349-19209-246155-57627-70796-38418-125682-91105-164650-158071-38968-66956-58446-143791-58446-230506s18929-163550 56807-230516c37868-66956 90005-119373 156411-157241 66416-37868 141332-56807 224757-56807 84515 0 159160 18669 223917 55987 64766 37318 115533 89735 152311 157241 36768 67506 55157 146261 55157 236276 0 6580-280 14269-830 23049-540 8779-1370 17019-2470 24699h-742575v-113613h660250l-64206 39518c1090-55977-10429-105924-34578-149831s-57357-78205-99614-102904c-42267-24699-91385-37048-147361-37048-54887 0-103734 12349-146541 37048s-76295 59276-100444 103724c-24149 44457-36218 95224-36218 152311v26338c0 58177 13449 110043 40338 155601 26898 45547 64486 80945 112783 106194 48297 25248 103734 37868 166300 37868 51597 0 98514-8779 140782-26338 42257-17569 79305-43907 111133-79035l87265 102084c-39518 46107-88635 81225-147361 105374s-124313 36228-196758 36228z" class="fil0"/><path id="_2" d="M5802222 1483591c71356 0 134192 13729 188529 41168 54337 27438 96864 69156 127602 125132 30738 55987 46107 126782 46107 212397v502190h-158071v-484071c0-84525-20579-148191-61746-190999-41158-42807-99064-64216-173700-64216-55987 0-104834 10979-146541 32928-41717 21959-73816 54337-96324 97144-22499 42817-33748 96054-33748 159720v449493h-158071v-872648h151481v235446l-24699-62566c28538-57077 72446-101534 131722-133362 59276-31838 128422-47757 207458-47757z" class="fil0"/><path id="_3" d="M6757194 2374357c-87805 0-155861-23599-204168-70796-48297-47207-72446-114713-72446-202528v-800202h158071v793622c0 47197 11799 83415 35398 108663s57357 37868 101264 37868c49397 0 90555-13719 123483-41158l49397 113613c-24149 20849-52957 36218-86445 46097-33478 9879-68326 14819-104554 14819zm-424794-752455v-130072h556517v130072z" class="fil0"/><path id="_4" d="M7126022 2364478V1211917h266734v1152561z" class="fil1"/><path id="_5" d="m7514599 2364478 513709-1152561h263444l515359 1152561h-279903l-421515-1017539h105384l-423155 1017539h-273324zm256855-246975 70806-202518h592744l72446 202518z" class="fil1"/><path d="m2409635 676669-211167 91634 105004 155141 106164-246775zm63796-80645 29488-12799-12669 29458 3580 1540-155301 361008 284343 420105-3230 2190 400 590-100 50 1830 3440-592694 316421 291422 672660-48177 20819-291243-672260-31548 16839 17689-41108-313201-322681c-6450-36128 2200-42407 37718-36598l295032 303952 292002-678779-129452-191239-377927 163990c-39608 4220-50617-19569-20899-48137l368898-160070-221157-326760-252195 358758c-39388 15729-45817-1350-43017-30318l41168-58546c78195-111213 156401-222437 234576-333680l20309-28898 269464 398116 303342-131632 1550 3570zm75975 784693-235586-348049-264604 615093z" class="fil2"/><circle cx="1898656" cy="372314" r="198222" class="fil3"/><circle cx="2587396" cy="1389885" r="198222" class="fil3"/><circle cx="2286753" cy="2378806" r="198222" class="fil3"/><circle cx="1995389" cy="1706260" r="198222" class="fil3"/><circle cx="2460007" cy="626210" r="198222" class="fil3"/><path d="M1626922 2200538c-11849 22249-22759 43007-31638 60846l-3070 6510c-33438 68496-74826 153731-141701 173700-158390 47377-303892-285693-319961-323721l-4190-10039c5170-9349 10219-17659 15099-26068 5160-8310 10399-16539 15849-24849 1160-1330 2310-3250 3250-4870 49977-72916 173700-220617 335340-178109 23219 6100 46917 16069 71576 30658 15389 9069 29248 19499 42217 30658 4410 4010 8599 8419 12999 12819 7660 7440 15389 15099 22249 23219 6030 7260 11659 14919 17409 22759 3900 5520 8120 11079 11839 16899 7440 11659 14629 23869 21419 37158 940 1630 1910 3250 2490 4700-18529 48707-46437 101004-71286 147691l110 40zm46787-1948343c-61906 12089-123683 30578-183979 55577l-9069 3720c-4690 2100-9059 3900-13469 5530-22059 7650-38998 14149-52937 19499-43917 17189-43917 17189-120073-5350l-17119-5160c-221227-82735-515869-103144-711167-16139v-1480c-14659 7220-29178 15129-43517 23649-7040 4120-13899 8310-20579 12749l-2850 1910-730 510-2130 1410-2820 1910-2780 1920-2810 1950c-20619 14259-40778 29928-60126 47017l-2420 2130-4840 4330-2420 2170-4300 3970-430 400c-23619 21879-45147 44997-64686 69186h370c-130222 160880-206748 401686-160130 711127l1630 10689c9499 63096 18739 124443 28058 184469h580c61856 398936 126462 738536 289153 1131622l5740 13939c41168 100134 109893 268024 230006 268024l9709-30 8769-3720c110073-46737 151171-152401 181359-229426 20259-52257 38318-105194 55977-156511 23039-67356 45287-132822 72046-195478 60376 122893 183919 323351 346719 323351 19279 0 38778-2780 58936-8879 107284-31528 160910-142291 200278-223217l3250-6500c8120-16899 18809-36688 30008-57887 11379-21309 23979-44997 36008-69486 11839 38318 22239 77785 32498 116753 11379 43487 22929 88585 36688 130622 57527 177129 132322 360218 250335 372248 63156 6320 119823-35748 170630-125162 7030-12309 13759-24719 20209-37228l-84895-42437c-5650 10969-11529 21829-17649 32568-29038 50637-58936 80825-78435 77575-21779-2100-81975-36798-169510-307102-13079-39258-23699-81035-35358-125172-37378-143511-79415-303922-201798-407126-470-400-940-870-1440-1160-15789-13289-32688-25778-51607-36868-180 0-180-290-470-290-156981-93534-330860-55797-470912 95914-21879 23869-43007 50157-63156 79705-82445 120283-128232 254555-172260 384377-17189 50337-34878 102634-54567 152791-30478 78075-58936 140732-119353 171430-53877-13289-111693-153551-133942-208118l-5630-13939c-156801-378317-220717-708677-280923-1095184h-540c-10069-64576-20039-130692-30298-198838l-1440-10399c-41747-276113 26218-593334 258025-749085 172360-112633 490121-104294 715997-12859v800l6900 1990 140 70 7050 2020c94684 27918 109783 28098 177379 1630 12999-5170 29038-11089 49987-18349 6500-2560 13179-5340 19969-8130l7650-3250c39628-16379 79915-29658 120383-39888z" class="fil2"/><path d="M1230526 1392136V760274h151641v645032h-151641zm-310801-258584-66826-177979-64926 177979zm247955 271754h-144001l-53427-140852H740346l-51417 140852H528059l250445-645031h150201c86105 215017 172260 430024 258404 645031z" style="fill:#727271"/><path d="M-5-4h8991520v3022289H-5z" style="fill:none"/></g></svg>
