<?xml version="1.0" encoding="UTF-8"?>
<!DOCTYPE svg PUBLIC "-//W3C//DTD SVG 1.1//EN" "http://www.w3.org/Graphics/SVG/1.1/DTD/svg11.dtd">
<!-- Creator: CorelDRAW -->
<svg xmlns="http://www.w3.org/2000/svg" xml:space="preserve" width="147.645mm" height="22.1029mm" version="1.1" style="shape-rendering:geometricPrecision; text-rendering:geometricPrecision; image-rendering:optimizeQuality; fill-rule:evenodd; clip-rule:evenodd"
viewBox="0 0 148314 22203"
 xmlns:xlink="http://www.w3.org/1999/xlink"
 xmlns:xodm="http://www.corel.com/coreldraw/odm/2003">
 <defs>
  <style type="text/css">
   <![CDATA[
    .str0 {stroke:black;stroke-width:201;stroke-miterlimit:22.9256}
    .fil7 {fill:none}
    .fil5 {fill:#0E4E95}
    .fil3 {fill:#112A52}
    .fil6 {fill:#FF99CC}
    .fil0 {fill:black;fill-rule:nonzero}
    .fil2 {fill:#0E4E95;fill-rule:nonzero}
    .fil4 {fill:#112A52;fill-rule:nonzero}
    .fil1 {fill:#EC1B2E;fill-rule:nonzero}
   ]]>
  </style>
 </defs>
 <g id="Capa_x0020_1">
  <metadata id="CorelCorpID_0Corel-Layer"/>
  <path class="fil0" d="M12296 6104l0 -421 2013 39 1855 -39 0 421c-522,9 -840,33 -954,72 -110,35 -186,86 -230,151 -53,88 -86,300 -99,638 -4,88 -13,710 -26,1868l0 914c864,31 1916,46 3157,46 951,0 1712,-15 2282,-46l0 -914c0,-596 -9,-1180 -26,-1750 -13,-417 -46,-662 -99,-737 -48,-79 -129,-136 -243,-171 -110,-39 -425,-63 -947,-72l0 -421c943,26 1590,39 1940,39 132,0 772,-13 1921,-39l0 421c-517,9 -833,33 -947,72 -114,35 -191,86 -230,151 -57,88 -92,300 -105,638 -4,88 -13,710 -26,1868l0 3045c0,597 9,1178 26,1744 9,417 37,664 85,743 53,79 136,139 250,178 114,35 430,57 947,66l0 421c-846,-35 -1539,-53 -2079,-53 -574,0 -1169,18 -1783,53l0 -421c522,-9 838,-31 947,-66 114,-40 193,-92 237,-158 57,-88 90,-300 99,-638 4,-92 15,-714 33,-1868l0 -1499c-1228,-26 -2160,-39 -2796,-39 -693,0 -1574,13 -2644,39l0 1499c0,597 7,1178 20,1744 13,417 44,664 92,743 53,79 134,139 243,178 114,35 432,57 954,66l0 421c-592,-39 -1202,-60 -1829,-60 -684,0 -1364,20 -2039,60l0 -421c518,-9 833,-31 947,-66 114,-40 193,-92 237,-158 53,-88 86,-300 99,-638 4,-92 13,-714 26,-1868l0 -3045c0,-596 -7,-1180 -20,-1750 -13,-417 -46,-662 -99,-737 -48,-79 -129,-136 -243,-171 -110,-39 -425,-63 -947,-72z"/>
  <path class="fil0" d="M23228 15030l0 -331c368,-3 610,-32 726,-84 49,-21 84,-55 105,-100 35,-70 59,-254 74,-552 21,-463 32,-863 32,-1200l0 -2689c0,-477 -5,-943 -16,-1399 -11,-333 -37,-530 -79,-589 -39,-63 -104,-109 -195,-137 -88,-31 -340,-51 -758,-58l0 -337 1500 32 1589 -26c761,-10 1314,-16 1658,-16 348,0 675,19 984,58 -56,200 -95,374 -116,521 -7,32 -38,396 -94,1095l-331 0c3,-358 -20,-684 -69,-979 -193,-81 -405,-135 -637,-163 -393,-49 -786,-74 -1179,-74 -84,0 -272,7 -563,21 -291,14 -500,26 -626,37 -14,390 -25,754 -31,1095l-21 1779c410,21 787,32 1131,32 417,0 773,-19 1068,-58 112,-14 184,-42 216,-84 32,-42 59,-186 84,-431l32 -368 316 0 0 100 -27 1094 27 1226 -368 0 -16 -358c-7,-260 -32,-421 -73,-484 -39,-63 -114,-107 -226,-131 -200,-42 -588,-63 -1163,-63 -235,0 -568,9 -1000,26 -18,351 -26,872 -26,1563 0,649 9,1142 26,1479 505,38 1072,58 1699,58 446,0 763,-14 953,-42 190,-28 365,-76 526,-142 42,-109 84,-256 126,-442 77,-312 128,-547 153,-705l347 0c-91,709 -137,1296 -137,1763 -302,46 -669,68 -1100,68l-3141 -42c-46,0 -505,14 -1378,42z"/>
  <path class="fil0" d="M29497 15030l0 -331c368,-3 610,-32 726,-84 49,-21 84,-55 105,-100 35,-70 60,-254 74,-552 21,-463 31,-863 31,-1200l0 -4289c0,-116 -7,-191 -21,-226 -28,-63 -91,-139 -189,-226 -63,-56 -137,-91 -221,-105 -81,-18 -263,-28 -547,-32l0 -331c586,14 954,21 1105,21 256,0 510,-7 763,-21 298,390 518,677 658,863l1089 1342 1589 1915c509,610 917,1091 1226,1442 196,231 361,414 495,547l0 -3847c0,-344 -12,-747 -37,-1210 -14,-291 -37,-472 -68,-542 -25,-46 -62,-79 -110,-100 -116,-49 -356,-75 -721,-79l0 -331c414,14 833,21 1258,21 400,0 763,-7 1089,-21l0 331c-365,4 -605,30 -721,79 -49,21 -84,56 -105,105 -35,67 -60,251 -74,552 -21,463 -32,861 -32,1195l0 2531c0,512 9,1468 26,2868l-542 -158 -126 -26c-21,-7 -41,-17 -58,-32 -25,-17 -91,-88 -200,-210 -291,-330 -505,-579 -642,-747l-679 -858 -3731 -4457 0 4036c0,344 12,749 37,1216 14,291 37,470 68,537 25,49 61,84 110,105 116,49 356,76 721,79l0 331c-309,-24 -649,-37 -1021,-37 -407,0 -849,12 -1326,37z"/>
  <path class="fil0" d="M38261 7890l0 -337c137,4 345,9 626,16l1010 27c200,0 511,-7 931,-21 548,-21 865,-31 953,-31 670,0 1158,59 1463,179 309,119 547,314 716,584 169,267 253,558 253,874 0,295 -79,588 -237,879 -158,291 -388,533 -689,726 -299,193 -688,342 -1169,447 88,123 295,396 621,821l1326 1747c379,488 600,759 663,816 32,24 63,42 95,52 53,17 168,26 347,26l0 337c-267,-21 -500,-32 -700,-32 -207,0 -461,11 -763,32 -228,-263 -610,-777 -1147,-1542 -298,-425 -561,-779 -789,-1063 -368,-470 -719,-896 -1053,-1278l53 -158c183,11 321,16 416,16 638,0 1122,-151 1453,-453 330,-302 494,-700 495,-1194 0,-432 -142,-774 -427,-1026 -284,-256 -714,-384 -1289,-384 -361,0 -716,55 -1063,163 -14,189 -25,367 -32,532 -4,49 -15,559 -37,1531l0 2336c0,477 7,942 21,1394 7,333 29,532 68,595 42,63 109,110 200,142 91,28 344,46 758,53l0 337c-498,-28 -956,-42 -1374,-42 -337,0 -903,14 -1699,42l0 -337c414,-7 666,-25 758,-53 91,-32 154,-74 190,-126 42,-70 68,-240 79,-510 3,-74 10,-572 21,-1495l0 -2437c0,-477 -5,-943 -16,-1399 -11,-333 -37,-530 -79,-589 -39,-63 -104,-109 -195,-137 -88,-31 -340,-51 -758,-58z"/>
  <path class="fil0" d="M44566 8016l0 -321 1268 -247c140,49 237,97 289,142 53,42 163,175 332,400 249,333 537,788 863,1363 326,575 674,1233 1042,1974 372,-572 752,-1193 1142,-1863l1121 -1910 805 0 0 142c-193,214 -547,679 -1063,1394 -298,414 -686,1016 -1163,1805 -298,488 -466,788 -505,900 -38,109 -58,212 -58,311l0 405c0,477 5,942 16,1394 10,333 35,532 74,595 42,63 107,110 195,142 91,28 345,46 763,53l0 337c-572,-28 -1067,-42 -1484,-42 -400,0 -928,14 -1584,42l0 -337c414,-7 667,-25 758,-53 92,-32 153,-74 184,-126 46,-70 73,-240 84,-510 4,-74 10,-572 21,-1495l0 -616c-74,-158 -146,-300 -216,-426 -49,-88 -228,-389 -537,-905l-347 -568c-273,-449 -477,-768 -610,-958 -256,-365 -468,-626 -637,-784 -91,-87 -188,-149 -289,-184 -99,-35 -253,-53 -463,-53z"/>
  <path class="fil0" d="M53966 14708c70,-421 111,-1102 125,-2045l447 0c21,640 56,1019 105,1137 53,115 175,237 368,368 192,132 451,250 776,355 324,102 637,152 940,152 443,0 851,-101 1223,-302 373,-206 645,-474 816,-803 171,-333 257,-688 257,-1066 0,-289 -45,-539 -131,-750 -84,-211 -213,-379 -389,-507 -175,-132 -393,-224 -651,-276 -163,-26 -486,-69 -973,-132 -487,-60 -902,-129 -1244,-203 -456,-140 -792,-305 -1006,-493 -216,-188 -391,-436 -526,-743 -131,-307 -197,-637 -197,-993 0,-518 133,-1004 401,-1460 272,-460 671,-818 1197,-1072 530,-254 1105,-382 1723,-382 373,0 778,50 1218,151 442,96 854,239 1236,427 -62,276 -105,535 -132,776 -26,237 -46,588 -60,1052l-447 0c-13,-675 -32,-1044 -59,-1105 -110,-158 -260,-300 -447,-427 -452,-254 -923,-381 -1415,-382 -636,0 -1145,195 -1526,585 -377,386 -566,888 -566,1506 0,373 68,662 205,868 135,202 379,364 730,487 241,83 636,162 1184,237 548,70 1041,147 1481,230 411,123 716,270 914,441 198,167 360,388 487,664 127,272 190,592 191,960 0,873 -362,1634 -1086,2282 -724,650 -1660,974 -2809,974 -868,0 -1655,-171 -2362,-513z"/>
  <path class="fil0" d="M67578 14099l-205 489c-411,207 -813,356 -1205,447 -393,95 -821,142 -1284,142 -544,0 -1049,-69 -1516,-205 -466,-137 -875,-331 -1226,-584 -347,-256 -632,-542 -853,-858 -221,-316 -389,-658 -505,-1026 -116,-372 -174,-779 -174,-1221 0,-1119 389,-2045 1168,-2778 782,-737 1849,-1105 3200,-1105 319,0 614,19 884,58 274,35 605,105 995,210 393,102 634,161 721,179 -77,193 -135,382 -174,568 -56,298 -95,644 -116,1037l-332 0 -5 -621c-35,-344 -226,-600 -574,-768 -344,-168 -849,-253 -1516,-253 -498,7 -921,72 -1268,195 -347,119 -654,310 -921,574 -263,259 -479,591 -647,994 -169,400 -254,903 -258,1510 0,1063 325,1919 974,2568 649,646 1507,968 2573,968 481,0 926,-67 1337,-200 281,-91 560,-235 837,-432l89 111z"/>
  <path class="fil0" d="M68061 7890l0 -337 1610 32 1484 -32 0 337c-417,7 -672,26 -763,58 -88,28 -149,69 -184,121 -42,70 -69,240 -79,511 -4,70 -10,568 -21,1494l0 732c691,25 1533,37 2526,37 761,0 1370,-12 1826,-37l0 -732c0,-477 -7,-943 -21,-1399 -11,-333 -37,-530 -79,-589 -39,-63 -104,-109 -195,-137 -88,-31 -340,-51 -758,-58l0 -337c754,21 1272,32 1552,32 105,0 618,-11 1537,-32l0 337c-414,7 -666,26 -758,58 -91,28 -153,69 -184,121 -46,70 -74,240 -84,511 -4,70 -10,568 -21,1494l0 2437c0,477 7,942 21,1394 7,333 30,532 69,595 42,63 109,110 200,142 91,28 344,46 758,53l0 337c-677,-28 -1231,-42 -1663,-42 -459,0 -935,14 -1426,42l0 -337c417,-7 670,-25 758,-53 91,-32 154,-74 189,-126 46,-70 72,-240 79,-510 4,-74 12,-572 26,-1495l0 -1200c-982,-21 -1728,-32 -2236,-32 -554,0 -1259,10 -2115,32l0 1200c0,477 5,942 16,1394 11,333 35,532 74,595 42,63 107,110 195,142 91,28 345,46 763,53l0 337c-474,-32 -961,-47 -1463,-47 -547,0 -1091,16 -1631,47l0 -337c414,-7 667,-25 758,-53 91,-32 154,-74 189,-126 42,-70 68,-240 79,-510 4,-74 10,-572 21,-1495l0 -2437c0,-477 -5,-943 -16,-1399 -10,-333 -37,-530 -79,-589 -39,-63 -103,-109 -194,-137 -88,-31 -341,-51 -758,-58z"/>
  <path class="fil0" d="M76904 15030l0 -331c368,-3 611,-32 727,-84 49,-21 84,-55 105,-100 35,-70 60,-254 73,-552 21,-463 32,-863 32,-1200l0 -2689c0,-477 -5,-943 -16,-1399 -10,-333 -37,-530 -79,-589 -38,-63 -103,-109 -195,-137 -88,-31 -340,-51 -758,-58l0 -337 1500 32 1589 -26c761,-10 1314,-16 1657,-16 347,0 675,19 984,58 -56,200 -95,374 -116,521 -7,32 -38,396 -94,1095l-332 0c3,-358 -19,-684 -69,-979 -193,-81 -405,-135 -637,-163 -393,-49 -786,-74 -1179,-74 -84,0 -272,7 -563,21 -291,14 -500,26 -626,37 -14,390 -24,754 -31,1095l-21 1779c411,21 788,32 1132,32 418,0 774,-19 1068,-58 112,-14 184,-42 216,-84 31,-42 59,-186 84,-431l32 -368 316 0 0 100 -26 1094 26 1226 -368 0 -16 -358c-7,-260 -32,-421 -74,-484 -39,-63 -114,-107 -226,-131 -200,-42 -588,-63 -1163,-63 -235,0 -568,9 -1000,26 -17,351 -26,872 -26,1563 0,649 9,1142 26,1479 505,38 1072,58 1700,58 446,0 763,-14 953,-42 189,-28 365,-76 526,-142 42,-109 84,-256 126,-442 77,-312 128,-547 153,-705l347 0c-91,709 -137,1296 -137,1763 -302,46 -668,68 -1099,68l-3142 -42c-45,0 -505,14 -1379,42z"/>
  <path class="fil0" d="M86276 14694l0 337c-747,-28 -1238,-42 -1473,-42l-1626 42 0 -337c414,-7 667,-25 758,-53 91,-32 154,-74 189,-126 42,-70 68,-240 79,-510 4,-74 11,-572 21,-1495l0 -2437c0,-477 -5,-943 -16,-1399 -10,-333 -37,-530 -79,-589 -38,-63 -103,-109 -195,-137 -88,-31 -340,-51 -758,-58l0 -337c670,25 1188,37 1553,37 351,0 867,-12 1547,-37l0 337c-417,7 -672,26 -763,58 -88,28 -149,69 -184,121 -42,70 -69,240 -79,511 -4,70 -10,568 -21,1494l0 2437c0,477 5,942 16,1394 11,333 35,532 74,595 42,63 107,110 195,142 91,28 346,46 763,53z"/>
  <path class="fil0" d="M86619 15030l0 -331c368,-3 610,-32 726,-84 49,-21 84,-55 105,-100 35,-70 60,-254 74,-552 21,-463 32,-863 32,-1200l0 -4289c0,-116 -7,-191 -21,-226 -28,-63 -91,-139 -189,-226 -63,-56 -137,-91 -221,-105 -81,-18 -263,-28 -547,-32l0 -331c586,14 954,21 1105,21 256,0 510,-7 763,-21 298,390 517,677 657,863l1090 1342 1589 1915c509,610 917,1091 1226,1442 196,231 361,414 495,547l0 -3847c0,-344 -12,-747 -37,-1210 -14,-291 -37,-472 -69,-542 -24,-46 -61,-79 -111,-100 -115,-49 -356,-75 -721,-79l0 -331c414,14 834,21 1258,21 401,0 764,-7 1090,-21l0 331c-365,4 -605,30 -721,79 -49,21 -85,56 -105,105 -35,67 -60,251 -74,552 -21,463 -32,861 -32,1195l0 2531c0,512 9,1468 27,2868l-542 -158 -126 -26c-21,-7 -41,-17 -58,-32 -24,-17 -91,-88 -200,-210 -291,-330 -505,-579 -642,-747l-679 -858 -3731 -4457 0 4036c0,344 12,749 37,1216 14,291 37,470 68,537 25,49 61,84 111,105 116,49 356,76 721,79l0 331c-309,-24 -649,-37 -1021,-37 -407,0 -849,12 -1326,37z"/>
  <path class="fil1" d="M9679 6351l0 -704 -9679 0 0 7357c1355,0 2833,-881 4305,-3191 1480,-2321 3634,-3461 5374,-3461z"/>
  <path class="fil2" d="M0 14344l0 704 9679 0 0 -7356c-1356,0 -2833,881 -4305,3190 -1480,2322 -3634,3462 -5374,3462z"/>
  <path class="fil3" d="M99529 184c6071,0 10993,4922 10993,10993 0,6071 -4922,10993 -10993,10993 -4151,0 -7763,-2301 -9634,-5696l4840 0c1268,1148 2949,1848 4794,1848 3946,0 7145,-3199 7145,-7145 0,-3946 -3199,-7144 -7145,-7144 -1828,0 -3496,687 -4760,1817l-4857 0c1876,-3379 5479,-5665 9617,-5665z"/>
  <path class="fil4" d="M146622 1177l0 -870 -341 0 0 -123 821 0 0 123 -340 0 0 870 -140 0zm635 0l0 -993 116 0 445 750 -62 0 440 -750 116 0 1 993 -136 0 -1 -779 33 0 -391 658 -65 0 -394 -658 36 0 0 779 -136 0z"/>
  <rect class="fil3" x="131227" y="184" width="14587" height="3848"/>
  <rect class="fil3" x="131227" y="18321" width="14587" height="3848"/>
  <rect class="fil5" x="131227" y="9253" width="14587" height="3848"/>
  <polygon class="fil6" points="126128,250 126128,18711 129940,22170 129977,22170 129977,250 "/>
  <polygon class="fil3" points="126128,250 126128,13133 111657,0 111657,5577 126128,18711 129940,22170 129940,22170 129977,22203 129977,22170 129977,16626 129977,250 "/>
  <polygon class="fil5" points="111657,22170 115505,22170 115505,10902 111657,7410 "/>
  <line class="fil7 str0" x1="21531" y1="11879" x2="20294" y2= "8834" />
 </g>
</svg>
