<?xml version="1.0" encoding="UTF-8"?>
<!DOCTYPE svg PUBLIC "-//W3C//DTD SVG 1.1//EN" "http://www.w3.org/Graphics/SVG/1.1/DTD/svg11.dtd">
<!-- Creator: CorelDRAW -->
<svg xmlns="http://www.w3.org/2000/svg" xml:space="preserve" width="203.462mm" height="74.2681mm" version="1.1" style="shape-rendering:geometricPrecision; text-rendering:geometricPrecision; image-rendering:optimizeQuality; fill-rule:evenodd; clip-rule:evenodd"
viewBox="0 0 19108803 6975147"
 xmlns:xlink="http://www.w3.org/1999/xlink"
 xmlns:xodm="http://www.corel.com/coreldraw/odm/2003">
 <defs>
  <style type="text/css">
   <![CDATA[
    .str0 {stroke:black;stroke-width:18784;stroke-miterlimit:22.9256}
    .fil11 {fill:none}
    .fil0 {fill:#FEFEFE}
    .fil9 {fill:#0E4E95}
    .fil7 {fill:#112A52}
    .fil1 {fill:#CA1C1D}
    .fil10 {fill:#FF99CC}
    .fil4 {fill:black;fill-rule:nonzero}
    .fil6 {fill:#0E4E95;fill-rule:nonzero}
    .fil8 {fill:#112A52;fill-rule:nonzero}
    .fil3 {fill:#9EA19E;fill-rule:nonzero}
    .fil2 {fill:#CA1C1D;fill-rule:nonzero}
    .fil5 {fill:#EC1B2E;fill-rule:nonzero}
   ]]>
  </style>
 </defs>
 <g id="Capa_x0020_1">
  <metadata id="CorelCorpID_0Corel-Layer"/>
  <rect class="fil0" y="1730166" width="4943192" height="4988837"/>
  <path class="fil1" d="M0 1730166l3947356 0c-131,826 -310,1634 -394,2470 -667,238093 194590,336425 283286,341178 104616,5194 164536,-96905 168734,-341600 -94,-695 -282,-1362 -413,-2047l544624 0 0 4988837 -2865453 0c206245,-106673 326104,-293458 194270,-561069 -133148,-233988 -361483,-461055 -742153,-523004 -380539,-48143 -570808,123878 -615166,557416 -13693,128762 -2348,235942 32533,323352 34553,86593 92228,153792 171589,203305l-1118813 0 0 -4988837zm3583713 597303c-153604,-166564 129485,-497561 303216,-336397 194477,198825 217863,434514 133252,514570 -70195,37314 -282216,25856 -436467,-178173zm-509921 515988c-201202,-208123 155660,-648047 382605,-447709 254528,248029 289663,551236 182578,658322 -89457,51270 -362469,45973 -565183,-210612zm-639838 568554c-188316,-290330 233754,-663741 467517,-477049 235285,276937 367259,482018 305263,684412 -84489,145282 -454312,109922 -772780,-207363zm-516307 519548c145057,-299421 342258,-391687 645793,-199257 240666,209654 346155,381403 316411,515227 -45015,207259 -247400,305780 -607070,295524 -352964,-36666 -467075,-245108 -355134,-611494zm544445 1411116c-95102,186578 -283408,276346 -668953,241990 -512926,-124517 -542135,-359943 -396120,-725952 193106,-307658 396120,-394082 733841,-152110 474110,394091 331232,636072 331232,636072z"/>
  <g id="_1401696752256">
   <path class="fil2" d="M6129730 2704749c0,-57394 20343,-106457 61103,-147114 40648,-40667 89720,-61085 147105,-61085 57497,0 106466,20418 147208,61085 40667,40657 61000,89720 61000,147114 0,57478 -20333,106541 -61000,147198 -40742,40676 -89711,61000 -147208,61000 -57384,0 -106457,-20324 -147105,-61000 -40761,-40657 -61103,-89720 -61103,-147198zm21536 2092654l0 0 0 -1737238 373354 0 0 1737238 -373354 0z"/>
   <path class="fil2" d="M7027055 4797403l0 -1737238 373354 0 0 218924c115501,-177064 293683,-265686 534302,-265686 187799,0 346653,68204 476777,204592 134726,143611 202075,320760 202075,531278l0 1048130 -373232 0 0 -965604c0,-296632 -137722,-445051 -412819,-445051 -124480,0 -226109,37154 -305122,111256 -81352,81427 -121981,190269 -121981,326677l0 972723 -373354 0z"/>
   <path class="fil2" d="M9205851 5396894l0 -1626086 -244075 0 0 -351715 244075 0 0 -294331c0,-177064 51373,-321877 154308,-434335 117191,-129279 281117,-193876 491729,-193876 114853,0 210584,15619 287212,46659l-154421 337393c-50181,-21526 -105254,-32242 -165034,-32242 -71819,0 -129946,25123 -174115,75407 -44376,50181 -66447,110063 -66447,179459l0 315867 373335 0 0 351715 -373335 0 0 1626086 -373232 0z"/>
   <path class="fil2" d="M10131812 3928741c0,-244057 83700,-454565 251232,-631733 181892,-188983 417627,-283606 707159,-283606 289532,0 525258,94623 707103,283606 167485,177168 251279,387677 251279,631733 0,244047 -83794,453457 -251279,628117 -181845,191472 -417571,287221 -707103,287221 -289532,0 -525267,-95750 -707159,-287221 -167532,-174660 -251232,-384070 -251232,-628117zm394843 0l0 0c0,157924 53261,291373 159699,400215 106466,108880 241070,163296 403849,163296 162723,0 297280,-54416 403840,-163296 106447,-108842 159652,-242291 159652,-400215 0,-157933 -53205,-291288 -159652,-400243 -106560,-108852 -241117,-163287 -403840,-163287 -162779,0 -297383,54435 -403849,163287 -106438,108955 -159699,242310 -159699,400243z"/>
   <path class="fil2" d="M12414632 4797403l0 -1087595c0,-212998 63395,-384042 190288,-513246 119586,-122075 267978,-183160 445023,-183160 129316,0 239361,28176 330292,84367 90951,56276 154327,131044 190185,224371l7213 0c35933,-93327 99253,-168095 190166,-224371 91026,-56191 201098,-84367 330283,-84367 177046,0 325371,61085 445070,183160 126874,129204 190269,300248 190269,513246l0 1087595 -373232 0 0 -1084073c0,-100446 -27537,-180023 -82639,-238609 -55074,-58680 -123287,-87973 -204583,-87973 -208217,0 -312288,125578 -312288,376857l0 1033798 -373232 0 0 -1033798c0,-251279 -104118,-376857 -312354,-376857 -81305,0 -149518,29293 -204592,87973 -55074,58586 -82554,138163 -82554,238609l0 1084073 -373317 0z"/>
   <path class="fil2" d="M16578329 4244589l315942 175862c-222615,279999 -491804,421130 -807671,423629 -289532,0 -525267,-94557 -707159,-283615 -167438,-177064 -251129,-387677 -251129,-631724 0,-244057 83691,-454565 251129,-631733 181892,-188983 417627,-283606 707159,-283606 215402,0 410377,77802 585056,233331 210612,186682 315942,434335 315942,742998l0 68288 -1442982 0c9514,129185 66973,237492 172237,324742 105348,87410 224954,131026 359013,131026 200995,0 368433,-89720 502464,-269199zm-1033714 -495317l0 0 1005040 0c-81399,-270401 -252547,-405596 -513340,-405596 -119671,0 -223723,35858 -312260,107659 -88537,71810 -148325,171148 -179441,297938z"/>
   <path class="fil2" d="M18735571 4797403l0 -211805c-129842,172265 -321004,258482 -573504,258482 -271781,0 -494227,-96952 -667216,-290734 -158732,-177158 -238149,-385254 -238149,-624605 0,-229734 82996,-435538 248968,-617401 180305,-198600 405136,-297938 674429,-297938 257290,0 442347,86227 555471,258482l0 -728676 373232 0 0 2254194 -373232 0zm-1083969 -868661l0 0c0,155623 54313,288424 163287,398374 108852,110157 238675,165137 389517,165137 148297,0 276280,-54980 383976,-165137 107649,-109950 161512,-242751 161512,-398374 0,-155538 -53862,-288320 -161512,-398383 -107696,-110072 -235679,-165146 -383976,-165146 -150842,0 -280666,55074 -389517,165146 -108974,110063 -163287,242845 -163287,398383z"/>
   <path class="fil3" d="M6131214 6587517l126414 -113425c77445,82357 166536,123005 266991,122000 65048,0 117248,-11956 156543,-35858 39173,-23902 58859,-56943 58859,-99046 0,-52604 -50275,-87607 -150805,-104804 -166536,-28748 -259863,-46959 -279933,-54623 -100521,-38281 -150796,-110044 -150796,-215327 0,-79455 36121,-144512 108382,-195247 72261,-50735 160619,-76158 264944,-76158 149349,0 268936,45945 358938,137891l-123465 110495c-72721,-71801 -154148,-107621 -244066,-107621 -63217,0 -111988,13393 -146475,40188 -28739,23001 -43043,50256 -43043,81784 0,52679 50181,87119 150711,103404 165606,26786 258924,44536 280009,53111 100455,38281 150720,111106 150720,218276 0,90979 -40206,164620 -120591,221056 -76619,53609 -168931,80385 -277135,80385 -152110,0 -280948,-55431 -386202,-166480z"/>
   <path class="fil3" d="M7080279 6388006c0,-97694 33444,-181864 100455,-252782 72730,-75595 167100,-113369 282882,-113369 115773,0 210049,37774 282873,113369 66908,70918 100427,155088 100427,252782 0,97534 -33520,181300 -100427,251157 -72824,76609 -167100,114834 -282873,114834 -115783,0 -210152,-38225 -282882,-114834 -67011,-69857 -100455,-153622 -100455,-251157zm157933 0l0 0c0,63085 21254,116393 63874,160018 42573,43531 96445,65367 161530,65367 65039,0 118920,-21836 161521,-65367 42611,-43625 63846,-96933 63846,-160018 0,-63245 -21235,-116562 -63846,-160187 -42601,-43522 -96482,-65311 -161521,-65311 -65086,0 -118957,21789 -161530,65311 -42620,43625 -63874,96943 -63874,160187z"/>
   <path class="fil3" d="M8089593 6975147l0 -650385 -97647 0 0 -140709 97647 0 0 -117764c0,-70758 20521,-128706 61751,-173636 46847,-51749 112439,-77624 196646,-77624 46020,0 84273,6283 114872,18671l-61733 135008c-20070,-8678 -42160,-12914 -65997,-12914 -28730,0 -51946,9984 -69697,30101 -17694,20155 -26579,44076 -26579,71819l0 126339 149415 0 0 140709 -149415 0 0 650385 -149265 0z"/>
   <path class="fil3" d="M8505914 6181169l0 -140652 84733 0 0 -183770 149340 -41719 0 225489 119145 0 0 140652 -119145 0 0 274261c0,66015 20502,111002 61742,134914l80385 45945 -66053 117708c-83296,-40094 -140295,-76506 -170894,-109086 -36375,-40141 -54520,-94313 -54520,-162197l0 -301544 -84733 0z"/>
   <polygon class="fil3" points="9241061,6753997 8972577,6040517 9133374,6040517 9256764,6416642 9259732,6416642 9404705,6083579 9549715,6416642 9552561,6416642 9676101,6040517 9836927,6040517 9568377,6753997 9406179,6376454 9403221,6376454 "/>
   <path class="fil3" d="M10546077 6735335l0 -84621c-51946,68842 -128358,103282 -229377,103282 -108654,0 -197670,-38685 -266860,-116252 -63498,-70852 -95196,-154120 -95196,-249739 0,-91993 33181,-174303 99507,-247024 72186,-79493 162085,-119126 269743,-119126 102982,0 176989,34365 222183,103385l0 -84724 149330 0 0 694818 -149330 0zm-433603 -347329l0 0c0,62174 21789,115285 65311,159314 43653,44085 95468,66072 155839,66072 59338,0 110598,-21986 153669,-66072 43071,-44029 64607,-97140 64607,-159314 0,-62240 -21536,-115445 -64607,-159427 -43071,-43982 -94332,-66072 -153669,-66072 -60371,0 -112186,22090 -155839,66072 -43522,43982 -65311,97187 -65311,159427z"/>
   <path class="fil3" d="M10949542 6735335l0 -694818 140737 0 0 76055 2874 0c26804,-63217 72270,-94717 136388,-94717 32543,0 59798,7110 81812,21536l-53083 147865c-16267,-13412 -34994,-20164 -55975,-20164 -27819,0 -51956,9880 -72552,29500 -20606,19563 -30833,44677 -30833,75398l0 459346 -149368 0z"/>
   <path class="fil3" d="M12007740 6514289l126311 70354c-89044,111913 -196740,168452 -323051,169354 -115773,0 -210161,-37774 -282882,-113369 -66898,-70758 -100418,-155088 -100418,-252622 0,-97694 33520,-181864 100418,-252782 72721,-75595 167109,-113369 282882,-113369 86208,0 164207,31040 234007,93299 84254,74590 126386,173646 126386,297205l0 27283 -577204 0c3804,51646 26804,94970 68936,129917 42169,34947 89946,52397 143611,52397 80385,0 147311,-35961 201004,-107668zm-413551 -198206l0 0 401999 0c-32533,-108128 -100915,-162188 -205268,-162188 -47955,0 -89514,14313 -124921,43071 -35407,28739 -59310,68485 -71810,119117z"/>
   <path class="fil3" d="M12780107 6587517l126358 -113425c77492,82357 166508,123005 267048,122000 65057,0 117276,-11956 156543,-35858 39192,-23902 58755,-56943 58755,-99046 0,-52604 -50181,-87607 -150702,-104804 -166527,-28748 -259854,-46959 -279999,-54623 -100465,-38281 -150720,-110044 -150720,-215327 0,-79455 36130,-144512 108401,-195247 72251,-50735 160610,-76158 264963,-76158 149302,0 268879,45945 358778,137891l-123362 110495c-72796,-71801 -154120,-107621 -244075,-107621 -63188,0 -111960,13393 -146428,40188 -28748,23001 -43071,50256 -43071,81784 0,52679 50181,87119 150720,103404 165606,26786 258924,44536 280009,53111 100436,38281 150720,111106 150720,218276 0,90979 -40225,164620 -120619,221056 -76581,53609 -169025,80385 -277125,80385 -152185,0 -280920,-55431 -386193,-166480z"/>
   <path class="fil3" d="M14322107 6735335l0 -84621c-51946,68842 -128349,103282 -229396,103282 -108654,0 -197651,-38685 -266869,-116252 -63573,-70852 -95262,-154120 -95262,-249739 0,-91993 33172,-174303 99525,-247024 72167,-79493 162085,-119126 269837,-119126 102935,0 176952,34365 222164,103385l0 -84724 149312 0 0 694818 -149312 0zm-433603 -347329l0 0c0,62174 21686,115285 65339,159314 43625,44085 95478,66072 155820,66072 59310,0 110495,-21986 153557,-66072 43080,-44029 64588,-97140 64588,-159314 0,-62240 -21507,-115445 -64588,-159427 -43062,-43982 -94247,-66072 -153557,-66072 -60343,0 -112195,22090 -155820,66072 -43653,43982 -65339,97187 -65339,159427z"/>
   <path class="fil3" d="M14725553 6735335l0 -694818 149359 0 0 87504c46189,-70758 117436,-106165 213740,-106165 75116,0 138614,27255 190608,81803 53919,57347 80901,128302 80901,212425l0 419252 -149340 0 0 -386165c0,-118666 -54970,-178079 -165165,-178079 -49683,0 -90350,14877 -121972,44527 -32608,32533 -48772,76055 -48772,130669l0 389048 -149359 0z"/>
   <path class="fil3" d="M15609927 5898296c0,-22888 8246,-42611 24485,-58849 16267,-16295 35886,-24419 58887,-24419 22925,0 42489,8124 58877,24419 16267,16239 24287,35961 24287,58849 0,23001 -8021,42695 -24287,58953 -16389,16295 -35952,24409 -58877,24409 -23001,0 -42620,-8115 -58887,-24409 -16239,-16257 -24485,-35952 -24485,-58953zm8697 837039l0 0 0 -694818 149236 0 0 694818 -149236 0z"/>
   <path class="fil3" d="M15963135 6181169l0 -140652 84733 0 0 -183770 149340 -41719 0 225489 119117 0 0 140652 -119117 0 0 274261c0,66015 20521,111002 61648,134914l80469 45945 -66043 117708c-83268,-40094 -140201,-76506 -170875,-109086 -36328,-40141 -54538,-94313 -54538,-162197l0 -301544 -84733 0z"/>
   <path class="fil3" d="M17058581 6735335l0 -84621c-51946,68842 -128349,103282 -229368,103282 -108682,0 -197680,-38685 -266879,-116252 -63489,-70852 -95280,-154120 -95280,-249739 0,-91993 33275,-174303 99619,-247024 72073,-79493 161991,-119126 269743,-119126 102972,0 176999,34365 222164,103385l0 -84724 149415 0 0 694818 -149415 0zm-433528 -347329l0 0c0,62174 21733,115285 65358,159314 43522,44085 95478,66072 155717,66072 59413,0 110504,-21986 153669,-66072 42977,-44029 64607,-97140 64607,-159314 0,-62240 -21629,-115445 -64607,-159427 -43165,-43982 -94257,-66072 -153669,-66072 -60239,0 -112195,22090 -155717,66072 -43625,43982 -65358,97187 -65358,159427z"/>
   <path class="fil3" d="M17462149 6735335l0 -694818 140634 0 0 76055 2846 0c26833,-63217 72298,-94717 136426,-94717 32505,0 59798,7110 81878,21536l-53130 147865c-16398,-13412 -35050,-20164 -56004,-20164 -27819,0 -51918,9880 -72524,29500 -20653,19563 -30890,44677 -30890,75398l0 459346 -149236 0z"/>
   <path class="fil3" d="M17974653 5898296c0,-22888 8030,-42611 24419,-58849 16257,-16295 35821,-24419 58877,-24419 22869,0 42564,8124 58831,24419 16257,16239 24409,35961 24409,58849 0,23001 -8152,42695 -24409,58953 -16267,16295 -35961,24409 -58831,24409 -23057,0 -42620,-8115 -58877,-24409 -16389,-16257 -24419,-35952 -24419,-58953zm8603 837039l0 0 0 -694818 149340 0 0 694818 -149340 0z"/>
   <path class="fil3" d="M18339291 6388006c0,-97694 33463,-181864 100493,-252782 72693,-75595 167034,-113369 282845,-113369 115801,0 210058,37774 282864,113369 67001,70918 100465,155088 100465,252782 0,97534 -33463,181300 -100465,251157 -72806,76609 -167062,114834 -282864,114834 -115811,0 -210152,-38225 -282845,-114834 -67030,-69857 -100493,-153622 -100493,-251157zm157952 0l0 0c0,63085 21338,116393 63883,160018 42564,43531 96445,65367 161502,65367 65067,0 118929,-21836 161643,-65367 42517,-43625 63752,-96933 63752,-160018 0,-63245 -21235,-116562 -63752,-160187 -42714,-43522 -96576,-65311 -161643,-65311 -65057,0 -118938,21789 -161502,65311 -42545,43625 -63883,96943 -63883,160187z"/>
  </g>
  <g id="_1401696772224">
   <path class="fil4" d="M982707 486056l0 -33510 160272 3146 147696 -3146 0 33510c-41550,704 -66851,2611 -75942,5757 -8725,2799 -14839,6809 -18314,12059 -4208,6969 -6818,23902 -7880,50791 -347,6988 -1033,56567 -2085,148748l0 72796c68786,2442 152599,3672 251401,3672 75755,0 136351,-1230 181732,-3672l0 -72796c0,-47476 -686,-93928 -2085,-139319 -1042,-33181 -3663,-52716 -7852,-58652 -3841,-6293 -10303,-10829 -19385,-13628 -8725,-3146 -33876,-5053 -75417,-5757l0 -33510c75069,2085 126574,3146 154505,3146 10481,0 61451,-1061 152937,-3146l0 33510c-41202,704 -66353,2611 -75417,5757 -9091,2799 -15196,6809 -18342,12059 -4546,6969 -7326,23902 -8387,50791 -338,6988 -1042,56567 -2085,148748l0 242451c0,47560 695,93806 2085,138840 704,33172 2968,52857 6818,59140 4189,6293 10819,11045 19911,14200 9063,2771 34214,4546 75417,5222l0 33510c-67396,-2780 -122564,-4179 -165503,-4179 -45748,0 -93064,1399 -141939,4179l0 -33510c41540,-676 66692,-2451 75417,-5222 9082,-3156 15365,-7344 18859,-12576 4536,-6988 7157,-23902 7852,-50838 347,-7344 1230,-56849 2611,-148767l0 -119370c-97760,-2094 -171955,-3146 -222587,-3146 -55168,0 -125353,1052 -210546,3146l0 119370c0,47560 526,93806 1578,138840 1033,33172 3475,52857 7326,59140 4189,6293 10650,11045 19375,14200 9091,2771 34393,4546 75942,5222l0 33510c-47138,-3146 -95665,-4733 -145602,-4733 -54463,0 -108589,1587 -162366,4733l0 -33510c41202,-676 66344,-2451 75417,-5222 9091,-3156 15374,-7344 18859,-12576 4189,-6988 6818,-23902 7861,-50838 347,-7344 1052,-56849 2094,-148767l0 -242451c0,-47476 -517,-93928 -1568,-139319 -1052,-33181 -3672,-52716 -7861,-58652 -3832,-6293 -10293,-10829 -19385,-13628 -8725,-3146 -33848,-5053 -75417,-5757z"/>
   <path class="fil4" d="M1853162 1196775l0 -26391c29312,-263 48612,-2517 57816,-6687 3898,-1681 6696,-4348 8387,-7974 2780,-5588 4733,-20249 5851,-43991 1691,-36863 2517,-68711 2517,-95543l0 -214115c0,-37971 -423,-75116 -1240,-111434 -864,-26541 -2949,-42188 -6283,-46922 -3099,-5034 -8265,-8659 -15525,-10923 -6978,-2498 -27095,-4020 -60343,-4593l0 -26823 119417 2517 126536 -2094c60615,-826 104616,-1249 131993,-1249 27668,0 53768,1540 78347,4602 -4452,15938 -7523,29763 -9213,41474 -564,2508 -3062,31557 -7523,87175l-26400 0c254,-28504 -1550,-54482 -5457,-77952 -15365,-6424 -32270,-10744 -50688,-12989 -31303,-3916 -62597,-5870 -93853,-5870 -6715,0 -21658,582 -44837,1691 -23207,1118 -39812,2085 -49871,2921 -1127,31012 -1963,60061 -2508,87156l-1672 141638c32655,1662 62691,2517 90087,2517 33219,0 61564,-1550 85053,-4630 8922,-1118 14651,-3343 17187,-6715 2517,-3343 4724,-14802 6696,-34337l2508 -29340 25151 0 0 7974 -2113 87147 2113 97619 -29331 0 -1287 -28485c-545,-20681 -2508,-33529 -5842,-38563 -3081,-5025 -9082,-8509 -18014,-10453 -15938,-3362 -46809,-5034 -92622,-5034 -18699,0 -45222,695 -79587,2094 -1428,27931 -2104,69415 -2104,124442 0,51683 676,90932 2104,117746 40216,3062 85316,4602 135318,4602 35482,0 60746,-1118 75839,-3343 15093,-2254 29040,-6020 41916,-11317 3343,-8669 6706,-20390 10040,-35210 6142,-24851 10190,-43559 12172,-56135l27631 0c-7260,56426 -10895,103216 -10895,140371 -24024,3635 -53224,5428 -87579,5428l-250133 -3334c-3635,0 -40216,1108 -109763,3334z"/>
   <path class="fil4" d="M2352329 1196775l0 -26391c29340,-263 48603,-2517 57816,-6687 3907,-1681 6696,-4348 8387,-7974 2799,-5588 4743,-20249 5870,-43991 1672,-36863 2508,-68711 2508,-95543l0 -341478c0,-9232 -554,-15234 -1672,-18014 -2235,-5043 -7260,-11045 -15093,-18014 -5025,-4480 -10895,-7279 -17591,-8387 -6424,-1409 -20944,-2235 -43578,-2526l0 -26391c46640,1127 75971,1681 87983,1681 20408,0 40629,-554 60765,-1681 23743,31021 41202,53928 52369,68730l86743 106842 126536 152514c40498,48593 73050,86875 97638,114806 15637,18427 28758,32965 39380,43578l0 -306287c0,-27387 -986,-59507 -2940,-96379 -1136,-23188 -2930,-37558 -5438,-43146 -1963,-3635 -4921,-6293 -8800,-7974 -9223,-3916 -28363,-6001 -57412,-6293l0 -26391c32956,1127 66335,1681 100145,1681 31848,0 60746,-554 86724,-1681l0 26391c-29040,291 -48180,2376 -57394,6293 -3907,1681 -6706,4480 -8378,8396 -2808,5306 -4762,19967 -5870,43991 -1672,36872 -2517,68570 -2517,95111l0 201530c0,40789 704,116900 2094,228372l-43156 -12585 -10049 -2104c-1681,-545 -3240,-1381 -4621,-2508 -1954,-1381 -7251,-6978 -15919,-16755 -23188,-26269 -40225,-46095 -51120,-59497l-54041 -68298 -297083 -354909 0 321380c0,27396 986,59648 2940,96811 1118,23160 2911,37427 5447,42724 1944,3916 4893,6725 8791,8378 9232,3907 28354,6020 57403,6283l0 26391c-24578,-1944 -51674,-2911 -81286,-2911 -32402,0 -67593,967 -105583,2911z"/>
   <path class="fil4" d="M3050171 628202l0 -26823c10885,291 27490,714 49824,1249l80451 2113c15910,0 40648,-554 74158,-1681 43606,-1681 68861,-2508 75839,-2508 53364,0 92200,4743 116487,14247 24588,9486 43588,25001 56999,46508 13430,21216 20117,44414 20117,69556 0,23451 -6311,46781 -18849,69960 -12576,23188 -30871,42461 -54877,57826 -23780,15374 -54783,27236 -93054,35633 6997,9758 23480,31557 49439,65358l105621 139093c30148,38826 47748,60474 52773,64963 2508,1944 5043,3343 7551,4170 4208,1399 13412,2113 27640,2113l0 26795c-21226,-1653 -39793,-2508 -55722,-2508 -16492,0 -36741,855 -60746,2508 -18154,-20944 -48603,-61864 -91364,-122742 -23733,-33820 -44677,-62014 -62822,-84668 -29331,-37417 -57290,-71350 -83832,-101789l4198 -12585c14539,836 25574,1259 33106,1259 50838,0 89373,-12012 115661,-36037 26250,-24024 39371,-55731 39380,-95102 0,-34355 -11327,-61611 -33952,-81709 -22625,-20408 -56849,-30608 -102653,-30608 -28777,0 -56971,4348 -84630,12998 -1127,15093 -1963,29199 -2526,42338 -282,3898 -1240,44527 -2911,121906l0 186043c0,37990 535,75013 1672,111030 545,26541 2357,42329 5428,47354 3362,5034 8659,8800 15919,11327 7279,2216 27387,3625 60352,4189l0 26795c-39671,-2226 -76121,-3334 -109368,-3334 -26823,0 -71923,1108 -135308,3334l0 -26795c32928,-564 53045,-1972 60314,-4189 7251,-2526 12275,-5870 15102,-10068 3334,-5588 5410,-19141 6264,-40639 263,-5861 826,-45532 1672,-119004l0 -194007c0,-37971 -423,-75116 -1240,-111434 -855,-26541 -2958,-42188 -6283,-46922 -3090,-5034 -8265,-8659 -15515,-10923 -6988,-2498 -27095,-4020 -60314,-4593z"/>
   <path class="fil4" d="M3552222 638261l0 -25565 100981 -19685c11167,3907 18849,7692 23048,11317 4198,3343 12989,13956 26400,31838 19826,26541 42733,62700 68720,108513 25959,45823 53637,98192 82949,157135 29622,-45522 59920,-94970 90941,-148325l89223 -152110 64099 0 0 11317c-15346,17046 -43569,54041 -84621,111021 -23752,32975 -54604,80873 -92604,143742 -23733,38817 -37135,62700 -40225,71641 -3052,8659 -4602,16905 -4602,24729l0 32252c0,37990 413,75013 1268,111030 836,26541 2789,42329 5861,47354 3343,5034 8509,8800 15506,11327 7251,2216 27509,3625 60756,4189l0 26795c-45560,-2226 -84921,-3334 -118168,-3334 -31838,0 -73876,1108 -126114,3334l0 -26795c32956,-564 53073,-1972 60324,-4189 7279,-2526 12162,-5870 14679,-10068 3625,-5588 5832,-19141 6687,-40639 282,-5861 836,-45532 1681,-119004l0 -49025c-5851,-12557 -11608,-23874 -17168,-33923 -3907,-6997 -18154,-31012 -42752,-72064l-27650 -45269c-21770,-35755 -37990,-61169 -48593,-76252 -20380,-29049 -37304,-49871 -50697,-62437 -7269,-6969 -14971,-11853 -23048,-14651 -7852,-2808 -20117,-4198 -36882,-4198z"/>
   <path class="fil4" d="M4300668 1171098c5588,-33538 8866,-87786 9984,-162855l35614 0c1681,50970 4480,81136 8378,90566 4189,9157 13909,18868 29331,29331 15299,10481 35896,19901 61808,28279 25771,8105 50763,12087 74872,12087 35248,0 67725,-8030 97412,-24090 29669,-16417 51326,-37708 64935,-63902 13637,-26532 20465,-54811 20465,-84855 0,-23029 -3560,-42940 -10481,-59704 -6696,-16755 -16971,-30167 -30937,-40366 -13938,-10472 -31275,-17798 -51815,-21996 -12970,-2094 -38741,-5513 -77502,-10481 -38760,-4799 -71801,-10256 -99028,-16192 -36309,-11176 -63066,-24269 -80094,-39286 -17187,-14999 -31162,-34731 -41916,-59178 -10463,-24447 -15703,-50754 -15703,-79079 0,-41211 10603,-79981 31895,-116290 21658,-36647 53421,-65114 95337,-85353 42245,-20258 88002,-30392 137224,-30392 29678,0 61949,4010 96943,12059 35191,7683 68006,19018 98455,34036 -4968,22005 -8387,42592 -10481,61817 -2085,18840 -3682,46781 -4743,83775l-35614 0c-1052,-53759 -2583,-83099 -4687,-87983 -8800,-12557 -20671,-23912 -35623,-34027 -36018,-20258 -73519,-30354 -112627,-30401 -50641,0 -91138,15534 -121512,46621 -30016,30730 -45053,70702 -45053,119943 0,29678 5382,52726 16285,69133 10744,16069 30157,28993 58107,38760 19188,6631 50613,12914 94266,18849 43644,5598 82892,11693 117886,18323 32749,9796 57037,21489 72749,35097 15731,13271 28645,30909 38760,52904 10134,21658 15168,47138 15224,76468 0,69481 -28824,130105 -86433,181704 -57619,51749 -132200,77520 -223629,77520 -69133,0 -131824,-13618 -188053,-40845z"/>
   <path class="fil4" d="M5384478 1122626l-16342 38967c-32712,16473 -64700,28354 -95975,35604 -31275,7542 -65367,11317 -102230,11317 -43306,0 -83522,-5457 -120685,-16342 -37135,-10885 -69697,-26382 -97619,-46499 -27659,-20399 -50284,-43165 -67884,-68298 -17600,-25133 -30993,-52388 -40225,-81718 -9223,-29603 -13815,-62014 -13815,-97206 0,-89100 30993,-162845 93007,-221234 62296,-58643 147217,-87973 254763,-87973 25414,0 48875,1531 70383,4602 21789,2789 48180,8387 79201,16755 31303,8096 50444,12857 57422,14257 -6152,15356 -10763,30448 -13834,45250 -4461,23733 -7542,51242 -9223,82554l-26419 0 -394 -49457c-2808,-27387 -18023,-47786 -45682,-61169 -27368,-13412 -67612,-20117 -120676,-20117 -39662,545 -73332,5710 -100981,15506 -27650,9495 -52087,24710 -73322,45682 -20944,20653 -38131,47044 -51533,79183 -13421,31838 -20249,71923 -20540,120253 0,84630 25846,152796 77520,204461 51683,51411 119971,77098 204893,77098 38281,0 73745,-5306 106419,-15919 22353,-7251 44574,-18709 66645,-34365l7128 8810z"/>
   <path class="fil4" d="M5422965 628202l0 -26823 128227 2517 118159 -2517 0 26823c-33238,573 -53496,2094 -60746,4593 -6997,2263 -11881,5466 -14679,9664 -3343,5569 -5466,19131 -6293,40648 -291,5569 -826,45241 -1681,118967l0 58248c55046,1963 122085,2940 201126,2940 60624,0 109086,-977 145395,-2940l0 -58248c0,-37971 -554,-75116 -1662,-111434 -864,-26541 -2949,-42188 -6283,-46922 -3090,-5034 -8265,-8659 -15515,-10923 -6978,-2498 -27114,-4020 -60333,-4593l0 -26823c60051,1681 101263,2517 123597,2517 8378,0 49176,-836 122348,-2517l0 26823c-32956,573 -53064,2094 -60324,4593 -7260,2263 -12153,5466 -14661,9664 -3644,5569 -5879,19131 -6706,40648 -291,5569 -836,45241 -1681,118967l0 194007c0,37990 554,75013 1681,111030 545,26541 2357,42329 5457,47354 3343,5034 8650,8800 15910,11327 7260,2216 27368,3625 60324,4189l0 26795c-53890,-2226 -98032,-3334 -132397,-3334 -36581,0 -74430,1108 -113547,3334l0 -26795c33219,-564 53355,-1972 60333,-4189 7251,-2526 12285,-5870 15083,-10068 3625,-5588 5738,-19141 6283,-40639 291,-5861 977,-45532 2094,-119004l0 -95515c-78215,-1691 -137572,-2517 -178079,-2517 -44142,0 -100258,826 -168443,2517l0 95515c0,37990 432,75013 1259,111030 855,26541 2789,42329 5879,47354 3353,5034 8518,8800 15515,11327 7251,2216 27509,3625 60746,4189l0 26795c-37727,-2508 -76544,-3766 -116478,-3766 -43588,0 -86884,1259 -129908,3766l0 -26795c32965,-564 53073,-1972 60361,-4189 7241,-2526 12275,-5870 15065,-10068 3353,-5588 5447,-19141 6293,-40639 282,-5861 836,-45532 1662,-119004l0 -194007c0,-37971 -404,-75116 -1259,-111434 -836,-26541 -2911,-42188 -6283,-46922 -3062,-5034 -8237,-8659 -15478,-10923 -7006,-2498 -27114,-4020 -60361,-4593z"/>
   <path class="fil4" d="M6127044 1196775l0 -26391c29331,-263 48631,-2517 57854,-6687 3869,-1681 6687,-4348 8368,-7974 2789,-5588 4743,-20249 5851,-43991 1681,-36863 2526,-68711 2526,-95543l0 -214115c0,-37971 -423,-75116 -1268,-111434 -826,-26541 -2921,-42188 -6283,-46922 -3062,-5034 -8227,-8659 -15506,-10923 -6988,-2498 -27095,-4020 -60343,-4593l0 -26823 119446 2517 126527 -2094c60624,-826 104606,-1249 131974,-1249 27640,0 53787,1540 78356,4602 -4471,15938 -7542,29763 -9213,41474 -554,2508 -3071,31557 -7513,87175l-26410 0c263,-28504 -1540,-54482 -5466,-77952 -15356,-6424 -32270,-10744 -50688,-12989 -31275,-3916 -62587,-5870 -93862,-5870 -6706,0 -21648,582 -44827,1691 -23179,1118 -39812,2085 -49880,2921 -1099,31012 -1925,60061 -2498,87156l-1691 141638c32712,1662 62719,2517 90096,2517 33247,0 61592,-1550 85053,-4630 8960,-1118 14651,-3343 17187,-6715 2508,-3343 4733,-14802 6706,-34337l2526 -29340 25114 0 0 7974 -2094 87147 2094 97619 -29321 0 -1259 -28485c-554,-20681 -2517,-33529 -5861,-38563 -3081,-5025 -9091,-8509 -18014,-10453 -15910,-3362 -46800,-5034 -92632,-5034 -18699,0 -45222,695 -79596,2094 -1381,27931 -2085,69415 -2085,124442 0,51683 704,90932 2085,117746 40235,3062 85344,4602 135346,4602 35464,0 60756,-1118 75830,-3343 15083,-2254 29058,-6020 41925,-11317 3362,-8669 6706,-20390 10049,-35210 6133,-24851 10190,-43559 12172,-56135l27621 0c-7251,56426 -10895,103216 -10895,140371 -24015,3635 -53214,5428 -87551,5428l-250171 -3334c-3616,0 -40216,1108 -109781,3334z"/>
   <path class="fil4" d="M6873273 1169980l0 26795c-59497,-2226 -98596,-3334 -117304,-3334l-129495 3334 0 -26795c32965,-564 53073,-1972 60361,-4189 7260,-2526 12275,-5870 15083,-10068 3343,-5588 5428,-19141 6264,-40639 291,-5861 845,-45532 1681,-119004l0 -194007c0,-37971 -413,-75116 -1268,-111434 -817,-26541 -2911,-42188 -6274,-46922 -3052,-5034 -8227,-8659 -15487,-10923 -6997,-2498 -27105,-4020 -60361,-4593l0 -26823c53364,1972 94576,2949 123634,2949 27931,0 68993,-977 123165,-2949l0 26823c-33228,573 -53477,2094 -60746,4593 -6978,2263 -11862,5466 -14670,9664 -3343,5569 -5457,19131 -6283,40648 -291,5569 -826,45241 -1672,118967l0 194007c0,37990 423,75013 1249,111030 864,26541 2808,42329 5879,47354 3353,5034 8518,8800 15497,11327 7269,2216 27518,3625 60746,4189z"/>
   <path class="fil4" d="M6900622 1196775l0 -26391c29321,-263 48593,-2517 57826,-6687 3898,-1681 6706,-4348 8359,-7974 2808,-5588 4771,-20249 5879,-43991 1662,-36863 2526,-68711 2526,-95543l0 -341478c0,-9232 -582,-15234 -1700,-18014 -2226,-5043 -7241,-11045 -15065,-18014 -5025,-4480 -10904,-7279 -17610,-8387 -6424,-1409 -20953,-2235 -43578,-2526l0 -26391c46640,1127 75971,1681 88002,1681 20399,0 40639,-554 60756,-1681 23743,31021 41202,53928 52350,68730l86762 106842 126546 152514c40507,48593 73012,86875 97628,114806 15619,18427 28748,32965 39371,43578l0 -306287c0,-27387 -977,-59507 -2921,-96379 -1136,-23188 -2958,-37558 -5475,-43146 -1944,-3635 -4865,-6293 -8810,-7974 -9185,-3916 -28307,-6001 -57394,-6293l0 -26391c32947,1127 66372,1681 100126,1681 31885,0 60803,-554 86790,-1681l0 26391c-29087,291 -48208,2376 -57412,6293 -3926,1681 -6753,4480 -8406,8396 -2789,5306 -4752,19967 -5861,43991 -1672,36872 -2536,68570 -2536,95111l0 201530c0,40789 742,116900 2113,228372l-43137 -12585 -10059 -2104c-1691,-545 -3240,-1381 -4621,-2508 -1935,-1381 -7251,-6978 -15919,-16755 -23207,-26269 -40235,-46095 -51148,-59497l-54041 -68298 -297045 -354909 0 321380c0,27396 967,59648 2921,96811 1136,23160 2921,37427 5438,42724 1963,3916 4893,6725 8810,8378 9223,3907 28354,6020 57394,6283l0 26391c-24578,-1944 -51646,-2911 -81286,-2911 -32392,0 -67584,967 -105574,2911z"/>
   <path class="fil5" d="M774377 505723l0 -56079 -770695 0 0 585770c107903,0 225555,-70129 342802,-254087 117830,-184832 289335,-275604 427893,-275604z"/>
   <path class="fil6" d="M3719 1142096l0 56088 770704 0 0 -585732c-107931,0 -225583,70138 -342812,254021 -117849,184916 -289344,275623 -427893,275623z"/>
   <path class="fil7" d="M7928560 14661c483408,0 875292,391884 875292,875283 0,483408 -391884,875292 -875292,875292 -330480,0 -618153,-183188 -767107,-453532l385366 0c100934,91411 234834,147114 381741,147114 314185,0 568874,-254688 568874,-568874 0,-314176 -254688,-568864 -568874,-568864 -145592,0 -278393,54726 -379008,144681l-386737 0c149340,-269011 436261,-451100 765745,-451100z"/>
   <path class="fil8" d="M11678264 93731l0 -69246 -27105 0 0 -9824 65395 0 0 9824 -27105 0 0 69246 -11186 0zm50603 0l0 -79070 9260 0 35464 59751 -4968 0 35013 -59751 9260 0 122 79070 -10848 0 -113 -62014 2592 0 -31172 52407 -5194 0 -31397 -52407 2818 0 0 62014 -10838 0z"/>
   <rect class="fil7" x="10452489" y="14660" width="1161431" height="306419"/>
   <rect class="fil7" x="10452489" y="1458812" width="1161431" height="306419"/>
   <rect class="fil9" x="10452489" y="736736" width="1161431" height="306419"/>
   <polygon class="fil10" points="10046487,19920 10046487,1489801 10349975,1765235 10352906,1765235 10352906,19920 "/>
   <polygon class="fil7" points="10046487,19920 10046487,1045735 8894211,0 8894211,444065 10046487,1489801 10349966,1765235 10349975,1765235 10352906,1767893 10352906,1765235 10352906,1323828 10352906,19920 "/>
   <polygon class="fil9" points="8894211,1765235 9200639,1765235 9200639,868079 8894211,589996 "/>
   <line class="fil11 str0" x1="1718069" y1="945862" x2="1619587" y2= "703412" />
  </g>
 </g>
</svg>
