<svg xmlns="http://www.w3.org/2000/svg" xml:space="preserve" width="639.628" height="272.931" style="shape-rendering:geometricPrecision;text-rendering:geometricPrecision;image-rendering:optimizeQuality;fill-rule:evenodd;clip-rule:evenodd" viewBox="0 0 16922440 7220833"><defs><style>.fil9{fill:none}.fil5{fill:#0e4e95}.fil3{fill:#112a52}.fil7,.fil8{fill-rule:nonzero;fill:#0e4e95}.fil8{fill:#112a52}</style></defs><g id="Capa_x0020_1"><path d="M2337252 2333412v-41887l200367 3930 184638-3930v41887c-51947 890-83575 3280-94934 7200-10909 3500-18549 8519-22909 15079-5250 8719-8519 29888-9839 63506-430 8729-1300 70716-2610 185948v91004c85985 3060 190768 4600 314290 4600 94704 0 170459-1540 227196-4600v-91004c0-59346-860-117423-2610-174159-1310-41487-4580-65906-9809-73335-4810-7860-12879-13539-24238-17039-10909-3920-42347-6310-94284-7200v-41887c93844 2610 158240 3930 193158 3930 13099 0 76825-1320 191198-3930v41887c-51507 890-82955 3280-94284 7200-11369 3500-18999 8519-22929 15079-5690 8719-9159 29888-10479 63506-430 8729-1310 70716-2610 185948v303111c0 59456 870 117273 2610 173569 870 41467 3710 66086 8509 73935 5240 7860 13529 13809 24898 17749 11329 3460 42777 5680 94284 6530v41897c-84255-3480-153220-5230-206907-5230-57186 0-116343 1750-177449 5230v-41897c51937-850 83375-3070 94284-6530 11359-3940 19209-9179 23579-15719 5680-8739 8939-29878 9809-63556 440-9179 1540-71066 3270-185978v-149241c-122212-2620-214976-3930-278272-3930-68966 0-156710 1310-263213 3930v149241c0 59456 660 117273 1970 173569 1300 41467 4340 66086 9159 73935 5240 7860 13319 13809 24228 17749 11359 3460 42987 5680 94934 6530v41897c-58926-3930-119602-5930-182028-5930-68086 0-135751 2000-202977 5930v-41897c51517-850 82935-3070 94284-6530 11359-3940 19219-9179 23579-15719 5240-8739 8519-29878 9819-63556 440-9179 1320-71066 2620-185978v-303111c0-59346-650-117423-1960-174159-1310-41487-4590-65906-9819-73335-4800-7860-12879-13539-24238-17039-10909-3920-42327-6310-94284-7200zm1088211 888524v-32998c36638-330 60766-3140 72275-8359 4870-2110 8369-5430 10479-9969 3480-6990 5920-25318 7320-54987 2110-46097 3150-85915 3150-119452v-267683c0-47457-530-93904-1560-139301-1070-33178-3680-52747-7850-58666-3870-6300-10339-10829-19409-13649-8719-3130-33878-5030-75435-5740v-33538l149291 3150 158190-2620c75785-1030 130792-1560 165010-1560 34598 0 67216 1920 97954 5750-5580 19919-9409 37198-11529 51847-690 3140-3830 39458-9399 108983h-32998c310-35638-1950-68106-6830-97454-19209-8029-40347-13429-63366-16239-39138-4890-78255-7330-117333-7330-8389 0-27078 720-56056 2100-29008 1400-49767 2620-62346 3660-1410 38778-2450 75085-3130 108953l-2090 177079c40827 2080 78375 3140 112623 3140 41527 0 76965-1930 106333-5790 11149-1390 18309-4180 21479-8379 3150-4190 5910-18509 8369-42937l3140-36668h31448v9959l-2650 108943 2650 122042h-36668l-1610-35618c-690-25838-3140-41917-7310-48197-3860-6290-11349-10639-22519-13079-19919-4200-58516-6290-115793-6290-23379 0-56536 870-99494 2620-1780 34918-2630 86785-2630 155570 0 64606 850 113683 2630 147201 50277 3830 106663 5760 169159 5760 44357 0 75955-1400 94814-4180 18879-2820 36318-7530 52407-14149 4180-10849 8379-25498 12549-44017 7680-31078 12739-54457 15219-70186h34548c-9079 70546-13619 129032-13619 175479-30038 4550-66546 6800-109493 6800l-312710-4170c-4540 0-50277 1380-137211 4170zm624031 0v-32998c36678-330 60766-3140 72285-8359 4890-2110 8359-5430 10479-9969 3500-6990 5930-25318 7340-54987 2090-46097 3130-85915 3130-119452v-426893c0-11549-680-19049-2090-22529-2800-6300-9069-13809-18859-22529-6290-5590-13619-9089-21999-10479-8029-1760-26178-2790-54477-3150v-32998c58306 1400 94984 2100 109993 2100 25508 0 50797-700 75965-2100 29678 38788 51517 67416 65476 85925l108433 133562 158190 190668c50637 60746 91324 108603 122062 143531 19549 23039 35958 41207 49237 54477v-382906c0-34238-1230-74385-3680-120492-1410-28988-3660-46957-6800-53937-2450-4540-6150-7870-10999-9969-11519-4900-35458-7500-71775-7860v-32998c41207 1400 82925 2100 125192 2100 39827 0 75955-700 108433-2100v32998c-36318 360-60236 2960-71765 7860-4870 2100-8379 5610-10469 10499-3500 6630-5950 24958-7330 54987-2090 46097-3150 85735-3150 118912v251944c0 50987 880 146151 2620 285502l-53957-15729-12569-2630c-2090-690-4040-1730-5770-3140-2440-1730-9069-8719-19899-20939-28988-32838-50287-57636-63906-74385l-67566-85385-371407-443692v401775c0 34248 1240 74575 3690 121022 1400 28958 3640 46787 6800 53417 2440 4900 6120 8399 10999 10469 11529 4890 35448 7530 71755 7860v32998c-30718-2430-64596-3640-101614-3640-40507 0-84505 1210-132002 3640zm872405-710805v-33538c13619 360 34368 890 62306 1560l100574 2650c19889 0 50817-700 92704-2110 54517-2100 86095-3130 94814-3130 66706 0 115263 5920 145621 17809 30738 11859 54497 31248 71265 58136 16779 26528 25148 55526 25148 86955 0 29328-7890 58496-23569 87464-15719 28998-38598 53087-68606 72295-29728 19219-68486 34048-116323 44537 8739 12209 29348 39458 61806 81715l132032 173899c37688 48537 59696 75595 65976 81205 3140 2430 6310 4180 9439 5220 5260 1740 16769 2630 34558 2630v33508c-26528-2070-49757-3140-69666-3140-20609 0-45927 1070-75935 3140-22709-26188-60766-77345-114223-153460-29668-42267-55856-77515-78545-105833-36668-46787-71615-89204-104793-127262l5250-15729c18169 1050 31968 1570 41387 1570 63556 0 111733-15009 144591-45047 32818-30028 49217-69676 49237-118892 0-42957-14169-77025-42457-102154-28278-25508-71066-38258-128322-38258-35978 0-71225 5430-105803 16249-1410 18859-2450 36498-3160 52927-350 4880-1540 55666-3640 152410v232575c0 47497 670 93774 2100 138811 680 33168 2930 52917 6780 59196 4200 6290 10829 10999 19899 14159 9099 2770 34238 4530 75455 5230v33508c-49597-2790-95174-4170-136741-4170-33528 0-89914 1380-169159 4170v-33508c41167-700 66326-2460 75415-5230 9059-3160 15349-7340 18879-12589 4170-6990 6770-23918 7830-50807 330-7320 1040-56916 2090-148771v-242545c0-47457-520-93904-1550-139301-1060-33178-3700-52747-7850-58666-3870-6300-10339-10829-19399-13649-8739-3130-33878-5030-75415-5740zm627650 12569v-31958l126242-24618c13959 4900 23559 9619 28808 14159 5250 4170 16249 17449 33008 39797 24788 33178 53427 78395 85915 135661 32458 57286 67056 122762 103703 196448 37028-56916 74905-118732 113683-185438l111543-190158h80135v14149c-19189 21309-54467 67556-105783 138801-29698 41207-68266 101104-115773 179689-29678 48527-46427 78395-50287 89564-3820 10829-5750 21129-5750 30918v40317c0 47497 520 93774 1590 138811 1030 33168 3480 52917 7320 59196 4180 6290 10639 10999 19389 14159 9059 2770 34388 4530 75945 5230v33508c-56946-2790-106163-4170-147721-4170-39807 0-92354 1380-157670 4170v-33508c41207-700 66356-2460 75415-5230 9109-3160 15209-7340 18359-12589 4530-6990 7290-23918 8359-50807 350-7320 1040-56916 2100-148771v-61286c-7320-15699-14509-29848-21469-42417-4880-8739-22689-38768-53437-90094l-34578-56586c-27208-44687-47487-76475-60746-95324-25478-36318-46627-62346-63386-78065-9079-8709-18699-14809-28808-18309-9809-3510-25148-5250-46107-5250zm935681 666128c6980-41917 11079-109743 12479-203587h44527c2100 63716 5600 101434 10459 113223 5240 11439 17389 23579 36678 36668 19129 13099 44877 24868 77265 35348 32218 10129 63456 15109 93604 15109 44067 0 84665-10039 121782-30108 37088-20529 64166-47147 81185-79885 17039-33178 25568-68526 25568-106083 0-28798-4440-53687-13089-74645-8369-20959-21229-37718-38678-50467-17429-13099-39108-22249-64786-27488-16209-2620-48427-6900-96884-13109-48457-6000-89764-12819-123802-20249-45387-13959-78845-30338-100124-49107-21499-18759-38958-43427-52407-73975-13079-30568-19629-63456-19629-98874 0-51517 13259-99984 39877-145371 27068-45817 66786-81405 119182-106713 52807-25318 110013-37998 171549-37998 37108 0 77455 5020 121202 15079 43987 9599 85015 23778 123082 42547-6210 27508-10489 53257-13099 77285-2620 23559-4610 58486-5930 104733h-44527c-1320-67216-3230-103883-5860-109993-10999-15699-25848-29898-44537-42537-45037-25328-91904-37948-140811-38008-63306 0-113933 19419-151900 58276-37528 38418-56316 88394-56316 149951 0 37108 6720 65926 20359 86435 13429 20089 37698 36238 72635 48457 23988 8279 63276 16139 117843 23559 54567 7000 103633 14619 147381 22909 40947 12249 71305 26868 90944 43877 19669 16599 35818 38638 48467 66136 12669 27078 18959 58926 19029 95604 0 86855-36038 162650-108053 227156-72035 64696-165270 96914-279582 96914-86415 0-164790-17029-235085-51067zm1354924-60596-20419 48717c-40897 20589-80885 35448-119992 44517-39098 9429-81715 14149-127802 14149-54137 0-104413-6830-150870-20439-46427-13609-87134-32978-122042-58136-34578-25488-62866-53957-84865-85375s-38758-65486-50287-102154c-11529-37008-17279-77535-17279-121532 0-111383 38748-203577 116283-276573 77875-73315 184038-109993 318490-109993 31778 0 61096 1920 87994 5760 27238 3480 60226 10489 99004 20949 39138 10119 63066 16069 71785 17819-7690 19199-13439 38068-17289 56576-5570 29668-9429 64056-11529 103193h-33028l-500-61816c-3500-34238-22529-59736-57106-76475-34208-16769-84515-25148-150870-25148-49567 680-91664 7140-126232 19389-34568 11869-65126 30888-91664 57106-26188 25818-47667 58806-64426 98994-16779 39807-25318 89914-25678 150340 0 105793 32318 191008 96914 255604 64606 64266 149981 96374 256154 96374 47847 0 92194-6630 133042-19899 27938-9059 55716-23379 83315-42957l8899 11009zm48127-618101v-33538l160290 3150 147731-3150v33538c-41557 710-66886 2610-75945 5740-8749 2820-14849 6830-18359 12079-4180 6970-6820 23918-7860 50817-360 6960-1030 56556-2100 148721v72825c68816 2460 152620 3670 251434 3670 75795 0 136381-1210 181769-3670v-72825c0-47457-690-93904-2080-139301-1080-33178-3680-52747-7860-58666-3860-6300-10319-10829-19389-13649-8719-3130-33888-5030-75425-5740v-33538c75065 2100 126592 3150 154510 3150 10479 0 61476-1050 152950-3150v33538c-41187 710-66326 2610-75405 5740-9079 2820-15199 6830-18329 12079-4560 6970-7350 23918-8389 50817-350 6960-1040 56556-2100 148721v242545c0 47497 700 93774 2100 138811 680 33168 2960 52917 6830 59196 4180 6290 10809 10999 19889 14159 9079 2770 34218 4530 75405 5230v33508c-67366-2790-122542-4170-165510-4170-45737 0-93054 1380-141951 4170v-33508c41537-700 66706-2460 75425-5230 9069-3160 15359-7340 18849-12589 4540-6990 7180-23918 7860-50807 370-7320 1220-56916 2620-148771v-119402c-97774-2120-171989-3160-222626-3160-55177 0-125342 1040-210577 3160v119402c0 47497 540 93774 1570 138811 1070 33168 3490 52917 7360 59196 4180 6290 10639 10999 19389 14159 9059 2770 34388 4530 75945 5230v33508c-47167-3140-95704-4710-145621-4710-54497 0-108623 1570-162400 4710v-33508c41197-700 66346-2460 75455-5230 9059-3160 15349-7340 18839-12589 4180-6990 6800-23918 7870-50807 350-7320 1030-56916 2070-148771v-242545c0-47457-510-93904-1580-139301-1030-33178-3640-52747-7840-58666-3840-6300-10299-10829-19359-13649-8749-3130-33898-5030-75455-5740m880205 710805v-32998c36678-330 60796-3140 72325-8359 4840-2110 8369-5430 10459-9969 3490-6990 5930-25318 7310-54987 2110-46097 3170-85915 3170-119452v-267683c0-47457-530-93904-1580-139301-1040-33178-3660-52747-7870-58666-3820-6300-10279-10829-19379-13649-8729-3130-33868-5030-75445-5740v-33538l149331 3150 158180-2620c75785-1030 130772-1560 164990-1560 34558 0 67236 1920 97954 5750-5580 19919-9419 37198-11519 51847-690 3140-3830 39458-9389 108983h-33018c340-35638-1930-68106-6830-97454-19189-8029-40337-13429-63366-16239-39098-4890-78245-7330-117343-7330-8379 0-27058 720-56046 2100-28978 1400-49767 2620-62356 3660-1370 38778-2400 75085-3120 108953l-2120 177079c40897 2080 78415 3140 112633 3140 41577 0 77005-1930 106343-5790 11189-1390 18309-4180 21479-8379 3130-4190 5910-18509 8389-42937l3150-36668h31408v9959l-2620 108943 2620 122042h-36668l-1570-35618c-700-25838-3150-41917-7320-48197-3860-6290-11369-10639-22529-13079-19899-4200-58506-6290-115803-6290-23379 0-56536 870-99514 2620-1730 34918-2600 86785-2600 155570 0 64606 870 113683 2600 147201 50297 3830 106703 5760 169199 5760 44347 0 75965-1400 94814-4180 18859-2820 36328-7530 52407-14149 4200-10849 8379-25498 12569-44017 7660-31078 12729-54457 15209-70186h34528c-9059 70546-13619 129032-13619 175479-30018 4550-66516 6800-109443 6800l-312760-4170c-4520 0-50267 1380-137241 4170zm932901-33508v33508c-74375-2790-123262-4170-146641-4170l-161890 4170v-33508c41207-700 66346-2460 75455-5230 9079-3160 15349-7340 18859-12589 4180-6990 6780-23918 7840-50807 350-7320 1050-56916 2090-148771v-242545c0-47457-510-93904-1580-139301-1020-33178-3640-52747-7840-58666-3830-6300-10289-10829-19369-13649-8749-3130-33888-5030-75455-5740v-33538c66706 2470 118233 3690 154560 3690 34918 0 86255-1220 153970-3690v33538c-41527 710-66856 2610-75945 5740-8719 2820-14819 6830-18329 12079-4180 6970-6830 23918-7860 50817-360 6960-1030 56556-2090 148721v242545c0 47497 530 93774 1570 138811 1070 33168 3500 52917 7340 59196 4190 6290 10649 10999 19369 14159 9089 2770 34418 4530 75945 5230zm34197 33508v-32998c36648-330 60756-3140 72285-8359 4880-2110 8389-5430 10449-9969 3510-6990 5960-25318 7360-54987 2070-46097 3150-85915 3150-119452v-426893c0-11549-730-19049-2120-22529-2790-6300-9059-13809-18839-22529-6270-5590-13629-9089-22009-10479-8029-1760-26198-2790-54487-3150v-32998c58306 1400 94974 2100 110023 2100 25498 0 50797-700 75955-2100 29678 38788 51497 67416 65446 85925l108463 133562 158200 190668c50637 60746 91274 108603 122052 143531 19519 23039 35938 41207 49227 54477v-382906c0-34238-1230-74385-3660-120492-1420-28988-3700-46957-6850-53937-2430-4540-6080-7870-11009-9969-11479-4900-35398-7500-71755-7860v-32998c41197 1400 82985 2100 125182 2100 39867 0 76005-700 108493-2100v32998c-36358 360-60266 2960-71775 7860-4910 2100-8429 5610-10499 10499-3490 6630-5940 24958-7330 54987-2090 46097-3170 85735-3170 118912v251944c0 50987 930 146151 2640 285502l-53927-15729-12569-2630c-2120-690-4060-1730-5790-3140-2410-1730-9059-8719-19899-20939-29008-32838-50297-57636-63946-74385l-67546-85385-371357-443692v401775c0 34248 1200 74575 3650 121022 1420 28958 3660 46787 6800 53417 2450 4900 6110 8399 11009 10469 11529 4890 35448 7530 71755 7860v32998c-30728-2430-64566-3640-101624-3640-40497 0-84495 1210-131982 3640z" style="fill:#000;fill-rule:nonzero"/><path d="M2076809 2358001v-70096h-963489v732294c134891 0 281982-87664 428543-317640 147321-231065 361727-344558 534946-344558" style="fill:#ec1b2e;fill-rule:nonzero"/><path d="M1113360 3153581v70106h963509v-732254c-134931 0-282012 87684-428573 317570-147331 231175-361727 344578-534936 344578" style="fill:#0e4e95;fill-rule:nonzero"/><path d="M11020673 1744100c604332 0 1094241 489919 1094241 1094251s-489909 1094241-1094241 1094241c-413164 0-772791-229016-959009-566984h481770c126182 114283 293571 183918 477230 183918 392785 0 711185-318400 711185-711185 0-392765-318400-711165-711185-711165-182008 0-348028 68406-473810 180879h-483489c186698-336309 545396-563954 957309-563954z" class="fil3"/><path d="M15708397 1842943v-86555h-33898v-12289h81765v12289h-33888v86555zm63256 0v-98844h11579l44337 74705h-6220l43777-74705h11579l140 98844h-13559l-130-77515h3240l-38968 65516h-6500l-39258-65516h3540v77515h-13559z" style="fill:#112a52;fill-rule:nonzero"/><path d="M14175977 1744101h1451973v383072h-1451973zm0 1805419h1451973v383072h-1451973z" class="fil3"/><path d="M14175977 2646810h1451973v383072h-1451973z" class="fil5"/><path d="M13668406 1750669v1837594l379406 344328h3670V1750669z" style="fill:#f9c"/><path d="M13668406 1750669v1282439l-1440519-1307337v555155l1440519 1307337 379406 344328 3670 3330V1750669z" class="fil3"/><path d="M12227887 3932591h383076V2811012l-383076-347648z" class="fil5"/><path d="M1568361 5480194v-867096h200667v867096z" class="fil7"/><path id="_1" d="M1974655 5480194v-867096h165990l369136 611922h-87954l362947-611922h164750l2469 867096h-188278l-1240-578474h34688l-289862 486809h-90424l-296051-486809h42117v578474z" class="fil7"/><path id="_2" d="m3043658 5480194 386476-867095h198197l387715 867095h-210577l-317110-765522h79275l-318350 765522h-205627zm193238-185808 53267-152360h445932l54507 152360h-553705z" class="fil7"/><path id="_3" d="M4512775 5495063c-68546 0-131512-10949-188898-32828-57396-21889-107363-53057-149891-93524-42527-40467-75555-87954-99094-142451-23539-54507-35308-114373-35308-179619 0-65236 11769-125102 35308-179609s56776-101984 99714-142451c42947-40467 93314-71645 151120-93524 57806-21889 121392-32828 190768-32828 76795 0 145961 12799 207477 38398 61526 25608 113343 62766 155460 111493l-128822 118912c-31378-33038-65656-57596-102813-73705-37158-16099-77625-24158-121392-24158-42117 0-80515 6610-115203 19829-34688 13209-64616 32198-89804 56976s-44597 54087-58226 87944c-13619 33858-20439 71435-20439 112723 0 40467 6820 77625 20439 111483 13629 33858 33038 63386 58226 88574s54917 44387 89184 57596c34268 13219 72055 19819 113343 19819 39637 0 78245-6400 115823-19199 37568-12799 74115-34478 109623-65036l113963 144931c-47077 35518-101784 62766-164130 81755-62346 18999-124492 28498-186428 28498zm167229-136261v-325779h183328v351788l-183328-26008z" class="fil7"/><path id="_4" d="M5233709 4962416h417444v156070h-417444zm14859 356747h471950v161030h-671378v-867095h655279v161030h-455851v545036z" class="fil7"/><path id="_5" d="M6366307 5489633c-40357 0-76265-6560-107723-19659-31448-13109-56346-30928-74695-53467-18349-22549-27518-48497-27518-77845 0-27258 6030-51767 18079-73525 12059-21749 31198-42197 57406-61326 26208-19139 59496-37878 99854-56226 29358-13629 52427-25678 69196-36168 16779-10479 28568-20569 35388-30268 6810-9699 10219-19529 10219-29488 0-13629-4590-24638-13759-33028-9169-8389-22669-12579-40497-12579-18869 0-33548 4720-44027 14159-10489 9429-15729 21489-15729 36168 0 7860 1570 15589 4720 23189 3140 7610 9169 16259 18089 25948 8909 9699 21489 22149 37738 37358l290142 268913-66836 77845-320020-297221q-27523.5-25168.5-44037-47187c-11009-14669-18999-29088-23978-43237q-7470-21238.5-7470-44037c0-26738 7080-50327 21229-70766 14159-20449 34078-36298 59756-47577 25688-11269 55826-16899 90424-16899 31978 0 59636 5110 82955 15329 23329 10219 41677 24768 55047 43637 13369 18879 20049 41417 20049 67626 0 23069-5770 44167-17299 63296-11529 19139-29488 37088-53857 53867-24378 16769-56226 33808-95544 51107-26728 12059-47827 23719-63296 34988-15459 11269-26598 22669-33418 34208-6810 11529-10219 24368-10219 38528 0 13099 4060 24898 12189 35378 8119 10489 19529 18619 34198 24378 14679 5770 31978 8649 51897 8649 31978 0 61336-7470 88074-22409 26728-14939 49397-37218 68006-66836s31848-65656 39717-108113l98284 30668c-11009 53467-30668 99854-58976 139171-28308 39318-63166 69716-104573 91214-41417 21489-87804 32238-139181 32238z" class="fil7"/><path id="_6" d="m7039895 5480194 386476-867095h198197l387715 867095h-210577l-317110-765522h79275l-318350 765522h-205627zm193238-185808 53267-152360h445932l54507 152360h-553705z" class="fil8"/><path id="_7" d="M8102708 5480194v-867096h200667v867096z" class="fil8"/><path id="_8" d="M9144462 5495063c-69366 0-135841-9299-199427-27878-63596-18579-114793-42737-153600-72465l68126-151120c37158 26428 81135 48107 131922 65036s102194 25388 154220 25388c39637 0 71635-3920 96004-11769 24358-7840 42317-18779 53877-32818 11569-14039 17349-30148 17349-48317 0-23119-9089-41497-27258-55117-18169-13629-42117-24778-71845-33448-29728-8669-62556-16929-98474-24778-35928-7840-71845-17549-107773-29108-35918-11559-68746-26418-98474-44587s-53887-42117-72465-71845c-18579-29728-27868-67716-27868-113963 0-49547 13419-94764 40257-135641s67306-73495 121392-97854c54097-24368 122012-36548 203767-36548 54507 0 108183 6400 161030 19199 52857 12799 99514 31998 139981 57606l-61936 152360c-40467-23129-80935-40257-121392-51407-40467-11149-80105-16729-118922-16729-38808 0-70606 4550-95374 13629-24778 9089-42537 20849-53267 35308-10739 14449-16109 31168-16109 50167 0 22299 9089 40257 27258 53877 18169 13629 42117 24568 71845 32828 29728 8259 62556 16519 98474 24778 35928 8259 71845 17749 107773 28488 35918 10739 68746 25188 98474 43357s53887 42117 72465 71845c18579 29728 27868 67306 27868 112723 0 48717-13619 93314-40877 133782-27248 40457-67926 73085-122012 97854-54087 24778-122422 37168-205007 37168z" class="fil8"/><path id="_9" d="M9834428 4962416h417444v156070h-417444zm14859 356747h471950v161030h-671378v-867095h655279v161030h-455851v545036z" class="fil8"/><path id="_10" d="M10481037 5480194v-867095h375326c77625 0 144521 12589 200677 37778 56156 25188 99504 61316 130062 108383 30558 47077 45837 103233 45837 168469 0 64416-15279 119952-45837 166609s-73905 82375-130062 107143c-56156 24778-123052 37168-200677 37168h-263843l89184-87954v329499zm551225 0-216776-314630h214296l219256 314630zm-350558-307201-89184-94144h252694q92904 0 138741-40257c30558-26838 45827-63796 45827-110863 0-47897-15269-85055-45827-111483s-76805-39637-138741-39637h-252694l89184-95384v491769z" class="fil8"/><path id="_11" d="m11651623 5480194-374096-867096h216776l327020 768002h-127592l331979-768002h199437l-375336 867096z" class="fil8"/><path id="_12" d="M12296993 5480194v-867096h200667v867096z" class="fil8"/><path id="_13" d="M13118251 5495063c-66886 0-129032-10949-186418-32828-57396-21889-107153-53057-149271-93524-42117-40467-74935-87954-98474-142451-23539-54507-35308-114373-35308-179619 0-65236 11769-125102 35308-179609s56566-101984 99094-142451c42527-40467 92284-71645 149271-93524 56976-21889 119322-32828 187038-32828 75155 0 143071 13009 203767 39018 60696 26018 111693 64206 152980 114583l-128822 118922c-29728-33858-62756-59256-99094-76185s-75975-25398-118922-25398c-40457 0-77625 6610-111483 19829-33858 13209-63176 32198-87944 56976-24778 24778-43977 54087-57606 87944-13619 33858-20439 71435-20439 112723 0 41297 6820 78865 20439 112723 13629 33858 32828 63176 57606 87954 24768 24768 54087 43767 87944 56976 33858 13219 71026 19819 111483 19819 42947 0 82585-8459 118922-25388 36338-16929 69366-42737 99094-77425l128822 118922c-41287 50367-92284 88774-152980 115193-60696 26428-129032 39647-205007 39647z" class="fil8"/><path id="_14" d="M13795828 4962416h417444v156070h-417444zm14859 356747h471950v161030h-671378v-867095h655279v161030h-455851v545036z" class="fil8"/><path id="_15" d="M14727339 5495063c-69366 0-135841-9299-199427-27878-63596-18579-114793-42737-153600-72465l68126-151120c37158 26428 81135 48107 131922 65036s102194 25388 154220 25388c39637 0 71635-3920 96004-11769 24358-7840 42317-18779 53877-32818 11569-14039 17349-30148 17349-48317 0-23119-9089-41497-27258-55117-18169-13629-42117-24778-71845-33448-29728-8669-62556-16929-98474-24778-35928-7840-71845-17549-107773-29108-35918-11559-68746-26418-98474-44587s-53887-42117-72465-71845c-18579-29728-27868-67716-27868-113963 0-49547 13419-94764 40257-135641s67306-73495 121392-97854c54097-24368 122012-36548 203767-36548 54507 0 108183 6400 161030 19199 52857 12799 99514 31998 139981 57606l-61936 152360c-40467-23129-80935-40257-121392-51407-40467-11149-80105-16729-118922-16729-38808 0-70606 4550-95374 13629-24778 9089-42537 20849-53267 35308-10739 14449-16109 31168-16109 50167 0 22299 9089 40257 27258 53877 18169 13629 42117 24568 71845 32828 29728 8259 62556 16519 98474 24778 35928 8259 71845 17749 107773 28488 35918 10739 68746 25188 98474 43357s53887 42117 72465 71845c18579 29728 27868 67306 27868 112723 0 48717-13619 93314-40877 133782-27248 40457-67926 73085-122012 97854-54087 24778-122422 37168-205007 37168z" class="fil8"/><path d="m3256574 2908256-123122-303111" class="fil9" style="stroke:#000;stroke-width:19999;stroke-miterlimit:22.9256"/><path d="M1045594 4242572h14572479" class="fil9" style="stroke:#ec1b2e;stroke-width:49997;stroke-miterlimit:22.9256"/><path d="M-5-5h16922440v7220833H-5z" class="fil9"/></g></svg>