<svg xmlns="http://www.w3.org/2000/svg" xml:space="preserve" width="639.628" height="272.931" style="shape-rendering:geometricPrecision;text-rendering:geometricPrecision;image-rendering:optimizeQuality;fill-rule:evenodd;clip-rule:evenodd" viewBox="0 0 16990444 7249851"><defs><style>.fil6{fill:#0e4e95}.fil4{fill:#112a52}.fil10,.fil8,.fil9{fill-rule:nonzero}.fil9{fill:#000}.fil10{fill:#25d366}.fil8{fill:#fff}</style></defs><g id="Capa_x0020_1"><path d="M1819638 3722866h13351157c351977 0 639941 287964 639941 639941v10c0 351977-287964 639941-639941 639941H1819638c-351977 0-639941-287964-639941-639941v-10c0-351977 287964-639941 639941-639941" style="fill:#ec1b2e"/><g id="_2425115186736"><path d="M2312641 1644689v-42056l201173 3946 185380-3946v42056c-52155 894-83911 3293-95315 7228-10953 3514-18623 8554-23001 15140-5271 8754-8554 30008-9879 63761-432 8765-1305 71000-2620 186695v91370c86330 3072 191535 4618 315553 4618 95085 0 171144-1546 228109-4618v-91370c0-59585-863-117894-2620-174859-1315-41654-4598-66171-9849-73630-4829-7891-12931-13594-24336-17107-10953-3936-42517-6335-94663-7228v-42056c94221 2620 158876 3946 193934 3946 13152 0 77134-1325 191966-3946v42056c-51714 894-83288 3293-94663 7228-11415 3514-19075 8554-23021 15140-5713 8754-9196 30008-10521 63761-432 8765-1315 71000-2620 186695v304329c0 59695 873 117744 2620 174267 873 41634 3725 66351 8544 74232 5261 7891 13584 13865 24998 17820 11375 3474 42949 5702 94663 6556v42066c-84593-3494-153836-5251-207738-5251-57416 0-116810 1757-178162 5251v-42066c52145-853 83710-3082 94663-6556 11405-3956 19286-9216 23673-15782 5702-8775 8975-29998 9849-63811 442-9216 1546-71351 3283-186726v-149840c-122703-2630-215840-3946-279391-3946-69243 0-157340 1315-264271 3946v149840c0 59695 663 117744 1978 174267 1305 41634 4357 66351 9196 74232 5261 7891 13373 13865 24326 17820 11405 3474 43160 5702 95315 6556v42066c-59163-3946-120083-5953-182760-5953-68359 0-136297 2008-203793 5953v-42066c51724-853 83268-3082 94663-6556 11405-3956 19296-9216 23673-15782 5261-8775 8554-29998 9859-63811 442-9216 1325-71351 2630-186726v-304329c0-59585-653-117894-1968-174859-1315-41654-4608-66171-9859-73630-4819-7891-12931-13594-24336-17107-10953-3936-42497-6335-94663-7228zm1092584 892095v-33131c36785-331 61010-3152 72566-8393 4889-2118 8403-5451 10521-10009 3494-7018 5943-25420 7349-55207 2118-46282 3162-86260 3162-119932v-268759c0-47648-532-94281-1566-139861-1074-33311-3695-52959-7881-58902-3885-6325-10381-10873-19487-13704-8754-3142-34014-5050-75738-5763v-33673l149890 3162 158826-2630c76090-1034 131317-1566 165673-1566 34737 0 67486 1928 98347 5773-5602 19999-9447 37347-11576 52055-693 3152-3845 39616-9437 109421h-33131c311-35781-1958-68379-6857-97845-19286-8062-40510-13483-63621-16304-39295-4909-78570-7359-117804-7359-8423 0-27187 723-56282 2108-29125 1406-49967 2630-62597 3674-1416 38933-2460 75387-3142 109391l-2098 177790c40991 2088 78690 3152 113075 3152 41694 0 77274-1938 106761-5813 11194-1395 18382-4197 21565-8413 3162-4207 5933-18583 8403-43110l3152-36815h31574v9999l-2660 109381 2660 122533h-36815l-1616-35761c-693-25942-3152-42086-7339-48391-3875-6315-11395-10682-22609-13132-19999-4217-58751-6315-116258-6315-23472 0-56764 873-99894 2630-1787 35058-2640 87133-2640 156195 0 64866 853 114140 2640 147792 50479 3845 107092 5783 169839 5783 44535 0 76260-1406 95195-4197 18955-2831 36464-7560 52617-14206 4197-10893 8413-25601 12600-44194 7710-31203 12790-54675 15280-70468h34687c-9116 70829-13674 129550-13674 176184-30159 4568-66813 6827-109933 6827l-313967-4186c-4558 0-50479 1385-137763 4186zm626538 0v-33131c36825-331 61010-3152 72576-8393 4909-2118 8393-5451 10521-10009 3514-7018 5953-25420 7369-55207 2098-46282 3142-86260 3142-119932v-428608c0-11596-683-19125-2098-22619-2811-6325-9106-13865-18935-22619-6315-5612-13674-9126-22087-10521-8062-1767-26284-2801-54695-3162v-33131c58541 1406 95366 2108 110435 2108 25611 0 51001-703 76270-2108 29797 38943 51724 67687 65739 86270l108869 134098 158826 191434c50840 60990 91691 109040 122553 144108 19627 23131 36102 41373 49435 54695v-384445c0-34375-1235-74684-3695-120977-1416-29105-3674-47146-6827-54153-2460-4558-6174-7901-11044-10009-11566-4919-35600-7530-72064-7891v-33131c41373 1406 83258 2108 125695 2108 39988 0 76260-703 108869-2108v33131c-36464 361-60478 2972-72054 7891-4889 2108-8413 5632-10511 10542-3514 6656-5974 25059-7359 55207-2098 46282-3162 86079-3162 119390v252957c0 51192 883 146738 2630 286649l-54173-15792-12620-2640c-2098-693-4056-1737-5793-3152-2450-1737-9106-8754-19979-21023-29105-32970-50489-57868-64163-74684l-67837-85728-372899-445475v403389c0 34385 1245 74875 3705 121509 1406 29075 3654 46975 6827 53631 2450 4919 6144 8433 11044 10511 11576 4909 35590 7560 72044 7891v33131c-30841-2440-64855-3654-102022-3654-40670 0-84844 1215-132532 3654zm875911-713662v-33673c13674 361 34506 894 62556 1566l100978 2660c19969 0 51021-703 93077-2118 54736-2108 86441-3142 95195-3142 66974 0 115726 5943 146206 17880 30862 11907 54716 31374 71552 58370 16846 26635 25249 55750 25249 87304 0 29446-7921 58731-23663 87816-15782 29115-38753 53300-68881 72586-29848 19296-68761 34185-116790 44716 8775 12258 29466 39616 62054 82043l132562 174598c37839 48732 59936 75899 66241 81531 3152 2440 6335 4197 9477 5241 5281 1747 16836 2640 34697 2640v33643c-26635-2078-49957-3152-69946-3152-20692 0-46112 1074-76240 3152-22800-26294-61010-77656-114682-154077-29787-42437-56081-77827-78861-106259-36815-46975-71903-89563-105214-127773l5271-15792c18242 1054 32096 1576 41554 1576 63811 0 112182-15069 145172-45228 32950-30149 49415-69956 49435-119370 0-43130-14226-77335-42628-102564-28392-25611-71351-38411-128838-38411-36122 0-71512 5451-106228 16314-1416 18935-2460 36644-3172 53139-351 4899-1546 55890-3654 153023v233510c0 47688 673 94151 2108 139369 683 33301 2942 53129 6807 59434 4217 6315 10873 11044 19979 14216 9136 2781 34375 4548 75758 5251v33643c-49796-2801-95556-4186-137291-4186-33663 0-90276 1385-169839 4186v-33643c41333-703 66592-2470 75718-5251 9096-3172 15411-7369 18955-12640 4186-7018 6797-24015 7861-51011 331-7349 1044-57145 2098-149368v-243519c0-47648-522-94281-1556-139861-1064-33311-3715-52959-7881-58902-3885-6325-10381-10873-19477-13704-8775-3142-34014-5050-75718-5763zm630172 12620v-32086l126749-24717c14015 4919 23653 9658 28924 14216 5271 4186 16314 17519 33141 39957 24888 33311 53641 78710 86260 136207 32588 57517 67325 123256 104120 197237 37176-57145 75206-119210 114140-186183l111991-190922h80457v14206c-19266 21394-54685 67827-106208 139359-29817 41373-68540 101510-116238 180411-29797 48722-46614 78710-50489 89924-3835 10873-5773 21214-5773 31042v40479c0 47688 522 94151 1596 139369 1034 33301 3494 53129 7349 59434 4197 6315 10682 11044 19467 14216 9096 2781 34526 4548 76250 5251v33643c-57175-2801-106590-4186-148314-4186-39967 0-92725 1385-158304 4186v-33643c41373-703 66622-2470 75718-5251 9146-3172 15270-7369 18433-12640 4548-7018 7319-24015 8393-51011 351-7349 1044-57145 2108-149368v-61532c-7349-15762-14567-29968-21555-42588-4899-8775-22780-38923-53651-90456l-34717-56814c-27318-44867-47678-76782-60990-95707-25581-36464-46814-62597-63641-78379-9116-8744-18774-14869-28924-18382-9849-3524-25249-5271-46292-5271zm939441 668805c7008-42086 11124-110184 12529-204405h44706c2108 63972 5622 101841 10501 113678 5261 11485 17459 23673 36825 36815 19206 13152 45058 24968 77576 35490 32347 10170 63711 15170 93980 15170 44244 0 85005-10080 122272-30229 37237-20611 64424-47336 81511-80206 17107-33311 25671-68801 25671-106510 0-28914-4458-53902-13142-74945-8403-21043-21314-37869-38833-50670-17499-13152-39265-22338-65046-27599-16274-2630-48622-6927-97273-13162-48652-6024-90125-12871-124300-20330-45570-14015-79162-30460-100526-49304-21585-18834-39114-43602-52617-74273-13132-30691-19708-63711-19708-99271 0-51724 13312-100385 40038-145955 27177-46001 67054-81732 119661-107142 53019-25420 110455-38150 172239-38150 37257 0 77766 5040 121689 15140 44164 9638 85356 23874 123577 42718-6235 27619-10531 53471-13152 77596-2630 23653-4628 58721-5953 105154h-44706c-1325-67486-3243-104301-5883-110435-11044-15762-25952-30018-44716-42708-45218-25430-92274-38100-141377-38160-63560 0-114391 19497-152511 58511-37678 38572-56543 88750-56543 150553 0 37257 6747 66191 20441 86782 13483 20169 37849 36383 72927 48652 24085 8313 63530 16204 118316 23653 54786 7028 104050 14678 147973 23001 41112 12298 71592 26976 91310 44054 19748 16666 35962 38793 48662 66402 12720 27187 19035 59163 19105 95988 0 87204-36183 163303-108487 228068-72325 64956-165934 97303-280706 97303-86762 0-165452-17097-236030-51272zm1360369-60840-20501 48913c-41062 20671-81210 35590-120475 44696-39255 9467-82043 14206-128315 14206-54354 0-104833-6857-151477-20521-46614-13664-87485-33110-122533-58370-34717-25591-63119-54173-85206-85718-22087-31544-38913-65749-50489-102564-11576-37156-17348-77847-17348-122021 0-111831 38903-204395 116750-277684 78188-73610 184778-110435 319770-110435 31906 0 61342 1928 88348 5783 27348 3494 60468 10531 99402 21033 39295 10160 63319 16134 72074 17890-7720 19276-13493 38221-17358 56804-5592 29787-9467 64313-11576 103608h-33161l-502-62065c-3514-34375-22619-59976-57336-76782-34345-16836-84854-25249-151477-25249-49766 683-92033 7168-126739 19467-34707 11917-65388 31012-92033 57336-26294 25922-47859 59043-64685 99392-16846 39967-25420 90276-25782 150945 0 106218 32448 191775 97303 256631 64866 64524 150583 96761 257183 96761 48039 0 92565-6656 133576-19979 28051-9096 55940-23472 83650-43130l8935 11054zm48321-620585v-33673l160934 3162 148324-3162v33673c-41724 713-67155 2620-76250 5763-8785 2831-14909 6857-18433 12128-4197 6998-6847 24015-7891 51021-361 6988-1034 56784-2108 149318v73118c69092 2470 153234 3685 252445 3685 76100 0 136929-1215 182499-3685v-73118c0-47648-693-94281-2088-139861-1084-33311-3695-52959-7891-58902-3875-6325-10361-10873-19467-13704-8754-3142-34024-5050-75728-5763v-33673c75367 2108 127101 3162 155131 3162 10521 0 61723-1054 153565-3162v33673c-41353 713-66592 2620-75708 5763-9116 2831-15260 6857-18402 12128-4578 6998-7379 24015-8423 51021-351 6988-1044 56784-2108 149318v243519c0 47688 703 94151 2108 139369 683 33301 2972 53129 6857 59434 4197 6315 10853 11044 19969 14216 9116 2781 34355 4548 75708 5251v33643c-67636-2801-123035-4186-166175-4186-45921 0-93428 1385-142521 4186v-33643c41704-703 66974-2470 75728-5251 9106-3172 15421-7369 18925-12640 4558-7018 7208-24015 7891-51011 371-7349 1225-57145 2630-149368v-119882c-98167-2128-172680-3172-223521-3172-55398 0-125846 1044-211423 3172v119882c0 47688 542 94151 1576 139369 1074 33301 3504 53129 7389 59434 4197 6315 10682 11044 19467 14216 9096 2781 34526 4548 76250 5251v33643c-47357-3152-96089-4729-146206-4729-54716 0-109060 1576-163052 4729v-33643c41363-703 66612-2470 75758-5251 9096-3172 15411-7369 18915-12640 4197-7018 6827-24015 7901-51011 351-7349 1034-57145 2078-149368v-243519c0-47648-512-94281-1586-139861-1034-33311-3654-52959-7871-58902-3855-6325-10341-10873-19437-13704-8785-3142-34034-5050-75758-5763zm883741 713662v-33131c36825-331 61040-3152 72616-8393 4859-2118 8403-5451 10501-10009 3504-7018 5953-25420 7339-55207 2118-46282 3183-86260 3183-119932v-268759c0-47648-532-94281-1586-139861-1044-33311-3674-52959-7901-58902-3835-6325-10321-10873-19457-13704-8765-3142-34004-5050-75748-5763v-33673l149931 3162 158816-2630c76090-1034 131297-1566 165653-1566 34697 0 67506 1928 98347 5773-5602 19999-9457 37347-11566 52055-693 3152-3845 39616-9427 109421h-33151c341-35781-1938-68379-6857-97845-19266-8062-40500-13483-63621-16304-39255-4909-78559-7359-117814-7359-8413 0-27167 723-56272 2108-29095 1406-49967 2630-62607 3674-1375 38933-2409 75387-3132 109391l-2128 177790c41062 2088 78730 3152 113085 3152 41744 0 77315-1938 106771-5813 11234-1395 18382-4197 21565-8413 3142-4207 5933-18583 8423-43110l3162-36815h31534v9999l-2630 109381 2630 122533h-36815l-1576-35761c-703-25942-3162-42086-7349-48391-3875-6315-11415-10682-22619-13132-19979-4217-58741-6315-116268-6315-23472 0-56764 873-99914 2630-1737 35058-2610 87133-2610 156195 0 64866 873 114140 2610 147792 50499 3845 107132 5783 169879 5783 44525 0 76270-1406 95195-4197 18935-2831 36474-7560 52617-14206 4217-10893 8413-25601 12620-44194 7690-31203 12780-54675 15270-70468h34667c-9096 70829-13674 129550-13674 176184-30139 4568-66783 6827-109883 6827l-314017-4186c-4538 0-50469 1385-137793 4186zm936650-33643v33643c-74674-2801-123758-4186-147230-4186l-162540 4186v-33643c41373-703 66612-2470 75758-5251 9116-3172 15411-7369 18935-12640 4197-7018 6807-24015 7871-51011 351-7349 1054-57145 2098-149368v-243519c0-47648-512-94281-1586-139861-1024-33311-3654-52959-7871-58902-3845-6325-10331-10873-19447-13704-8785-3142-34024-5050-75758-5763v-33673c66974 2480 118708 3705 155181 3705 35058 0 86601-1225 154589-3705v33673c-41694 713-67124 2620-76250 5763-8754 2831-14879 6857-18402 12128-4197 6998-6857 24015-7891 51021-361 6988-1034 56784-2098 149318v243519c0 47688 532 94151 1576 139369 1074 33301 3514 53129 7369 59434 4207 6315 10692 11044 19447 14216 9126 2781 34556 4548 76250 5251zm34335 33643v-33131c36795-331 61000-3152 72576-8393 4899-2118 8423-5451 10491-10009 3524-7018 5984-25420 7389-55207 2078-46282 3162-86260 3162-119932v-428608c0-11596-733-19125-2128-22619-2801-6325-9096-13865-18915-22619-6295-5612-13684-9126-22097-10521-8062-1767-26304-2801-54706-3162v-33131c58541 1406 95356 2108 110465 2108 25601 0 51001-703 76260-2108 29797 38943 51704 67687 65709 86270l108899 134098 158836 191434c50840 60990 91641 109040 122543 144108 19597 23131 36082 41373 49425 54695v-384445c0-34375-1235-74684-3674-120977-1426-29105-3715-47146-6877-54153-2440-4558-6104-7901-11054-10009-11525-4919-35540-7530-72044-7891v-33131c41363 1406 83318 2108 125685 2108 40028 0 76311-703 108929-2108v33131c-36504 361-60508 2972-72064 7891-4929 2108-8463 5632-10542 10542-3504 6656-5963 25059-7359 55207-2098 46282-3183 86079-3183 119390v252957c0 51192 934 146738 2650 286649l-54143-15792-12620-2640c-2128-693-4076-1737-5813-3152-2420-1737-9096-8754-19979-21023-29125-32970-50499-57868-64203-74684l-67817-85728-372849-445475v403389c0 34385 1205 74875 3664 121509 1426 29075 3674 46975 6827 53631 2460 4919 6134 8433 11054 10511 11576 4909 35590 7560 72044 7891v33131c-30852-2440-64825-3654-102032-3654-40660 0-84834 1215-132512 3654z" style="fill:#000;fill-rule:nonzero"/><path d="M2051150 1669376v-70377h-967361v735236c135434 0 283115-88017 430265-318916 147913-231994 363181-345943 537096-345943" style="fill:#ec1b2e;fill-rule:nonzero"/><path d="M1083830 2468153v70387h967381v-735196c-135474 0-283145 88037-430295 318846-147923 232104-363181 345963-537086 345963" style="fill:#0e4e95;fill-rule:nonzero"/><path d="M11030956 1053008c606760 0 1098638 491888 1098638 1098648s-491878 1098638-1098638 1098638c-414824 0-775897-229936-962863-569263h483706c126689 114742 294751 184657 479148 184657 394364 0 714043-319679 714043-714043 0-394344-319679-714023-714043-714023-182740 0-349427 68681-475714 181605h-485432c187448-337660 547587-566221 961156-566221z" class="fil4"/><path d="M15737518 1152249v-86902h-34034v-12339h82093v12339h-34024v86902zm63510 0v-99241h11626l44515 75005h-6245l43953-75005h11626l141 99241h-13614l-131-77827h3253l-39124 65779h-6526l-39415-65779h3554v77827h-13614z" style="fill:#112a52;fill-rule:nonzero"/><path d="M14198940 1053010h1457808v384612h-1457808zm0 1812673h1457808v384612h-1457808z" class="fil4"/><path d="M14198940 1959347h1457808v384612h-1457808z" class="fil6"/><path d="M13689329 1059604v1844979l380931 345712h3684V1059604z" style="fill:#f9c"/><path d="M13689329 1059604v1287593l-1446308-1312591v557386l1446308 1312591 380931 345712 3684 3343V1059604z" class="fil4"/><path d="M12243021 3250295h384615V2124208l-384615-349045z" class="fil6"/></g><path d="M3577172 4681583c-43481 0-83830-7198-121067-21605-37227-14397-69564-34787-97012-61141-27448-26364-48782-57476-63992-93348-15220-35871-22830-75005-22830-117392 0-42397 7610-81531 22830-117403 15210-35871 36685-66984 64404-93348 27719-26354 60057-46734 97012-61141 36956-14407 77445-21605 121469-21605 46744 0 89412 8022 128004 24055 38582 16033 71190 39807 97825 71331l-68480 64404c-20651-22278-43752-38994-69293-50138-25551-11144-53270-16716-83158-16716-29898 0-57205 4899-81933 14678-24727 9789-46202 23643-64404 41574-18212 17941-32347 39134-42397 63591-10060 24466-15079 51362-15079 80718 0 29346 5020 56252 15079 80708 10050 24456 24185 45650 42397 63591 18202 17931 39676 31795 64404 41574 24727 9789 52035 14678 81933 14678 29888 0 57607-5572 83158-16716 25541-11144 48642-28121 69293-50951l68480 65217c-26635 30982-59243 54625-97825 70929q-57888 24456-128817 24456z" class="fil8"/><path id="_1" d="M4075295 4679133c-44566 0-84242-9638-119029-28934s-62235-45790-82344-79493c-20109-33693-30159-72014-30159-114943 0-43481 10050-81933 30159-115364 20109-33422 47557-59645 82344-78670s74463-28532 119029-28532c45108 0 85196 9507 120244 28532 35058 19025 62506 45108 82344 78268 19838 33151 29757 71743 29757 115766 0 42929-9919 81250-29757 114943-19838 33703-47286 60197-82344 79493-35048 19296-75136 28934-120244 28934m0-87224c24998 0 47286-5441 66843-16304 19567-10873 34928-26635 46061-47286 11144-20651 16716-44847 16716-72556 0-28271-5572-52587-16716-72967-11134-20380-26494-36012-46061-46875-19557-10873-41574-16314-66030-16314-24998 0-47146 5441-66442 16314-19296 10863-34646 26494-46061 46875-11415 20380-17127 44696-17127 72967 0 27709 5713 51904 17127 72556 11415 20651 26765 36413 46061 47286 19296 10863 41172 16304 65629 16304" class="fil8"/><path id="_2" d="M4954950 4233197c34787 0 65629 6797 92535 20380 26906 13584 47959 34375 63179 62366 15220 27990 22830 64002 22830 108026v249463h-101911v-236421c0-38592-8423-67396-25270-86420-16846-19025-41032-28532-72556-28532-22288 0-41985 4889-59103 14678-17127 9779-30440 24185-39947 43210-9517 19015-14266 43200-14266 72556v220930h-101911v-236421c0-38592-8423-67396-25270-86420-16846-19025-41042-28532-72556-28532-22288 0-41985 4889-59113 14678-17117 9779-30430 24185-39947 43210-9507 19015-14266 43200-14266 72556v220930h-101901v-435345h97012v115766l-17117-34245c14668-28261 36002-49726 63992-64404 27990-14668 59926-22007 95797-22007 40761 0 76220 10050 106389 30159 30159 20109 50138 50549 59916 91310l-39947-13855c14136-32608 37508-58701 70116-78268s70377-29346 113316-29346z" class="fil8"/><path id="_3" d="M5813412 4233197c34787 0 65629 6797 92535 20380 26906 13584 47959 34375 63179 62366 15220 27990 22830 64002 22830 108026v249463h-101911v-236421c0-38592-8423-67396-25270-86420-16846-19025-41032-28532-72556-28532-22288 0-41985 4889-59103 14678-17127 9779-30440 24185-39947 43210-9517 19015-14266 43200-14266 72556v220930h-101911v-236421c0-38592-8423-67396-25270-86420-16846-19025-41042-28532-72556-28532-22288 0-41985 4889-59113 14678-17117 9779-30430 24185-39947 43210-9507 19015-14266 43200-14266 72556v220930h-101901v-435345h97012v115766l-17117-34245c14668-28261 36002-49726 63992-64404 27990-14668 59926-22007 95797-22007 40761 0 76220 10050 106389 30159 30159 20109 50138 50549 59916 91310l-39947-13855c14136-32608 37508-58701 70116-78268s70377-29346 113316-29346z" class="fil8"/><path id="_4" d="M6306645 4679133c-36956 0-69574-6927-97835-20782-28261-13865-50268-35058-66030-63591-15762-28532-23643-64544-23643-108026v-248650h101901v234795c0 39134 8835 68339 26504 87635 17660 19296 42799 28944 75407 28944 23914 0 44706-4889 62366-14678 17660-9779 31524-24456 41574-44023 10060-19567 15089-43752 15089-72556v-220117h101901v435345h-97012v-117392l17117 35871c-14668 28261-36142 49866-64404 64805-28261 14949-59243 22418-92936 22418z" class="fil8"/><path id="_5" d="M6924609 4233197c34777 0 65900 6797 93338 20380 27448 13584 49053 34375 64815 62366 15762 27990 23643 64002 23643 108026v249463h-101901v-236421c0-38592-9106-67396-27318-86420-18202-19025-43612-28532-76220-28532-23914 0-45118 4889-63591 14678-18483 9779-32749 24316-42799 43612-10060 19296-15089 43622-15089 72967v220117h-101901v-435345h97012v117392l-17117-35871c15220-27709 37367-49043 66442-63992s62637-22418 100687-22418z" class="fil8"/><path id="_6" d="M7236036 4673431v-435345h101901v435345zm51362-507088c-19025 0-34657-5974-46885-17931s-18342-26364-18342-43210c0-17399 6114-31936 18342-43622s27860-17519 46885-17519c19015 0 34646 5562 46875 16706q18342 16716 18342 41985c0 17941-5984 33020-17941 45248s-27719 18342-47276 18342z" class="fil8"/><path id="_7" d="M7671381 4679133c-45660 0-86280-9638-121880-28934s-63460-45790-83569-79493c-20109-33693-30159-72014-30159-114943 0-43481 10050-81933 30159-115364 20109-33422 47969-59645 83569-78670s76220-28532 121880-28532c42387 0 79754 8554 112092 25681 32337 17117 56934 42256 73781 75407l-78258 45660c-13051-20661-28944-35871-47698-45660-18744-9779-38994-14678-60729-14678-25009 0-47557 5441-67667 16314-20109 10863-35871 26494-47286 46875-11415 20380-17127 44696-17127 72967 0 28261 5713 52577 17127 72957 11415 20380 27177 36012 47286 46885 20109 10863 42658 16304 67667 16304 21736 0 41985-4899 60729-14678 18754-9789 34646-24998 47698-45650l78258 45650c-16846 32608-41443 57747-73781 75407-32337 17670-69705 26494-112092 26494z" class="fil8"/><path id="_8" d="M8213527 4673431v-88047l-5713-18754v-154077c0-29898-8965-53129-26896-69705-17941-16575-45118-24868-81531-24868-24456 0-48501 3805-72144 11415s-43622 18202-59926 31795l-39947-74192c23372-17931 51232-31384 83569-40349 32337-8975 65900-13453 100677-13453 63048 0 111831 15079 146336 45248 34516 30159 51774 76762 51774 139811v255175h-96199zm-136960 5702c-32619 0-61151-5562-85607-16706s-43341-26635-56663-46473c-13312-19838-19969-42256-19969-67255 0-24456 5843-46473 17529-66040s30841-35058 57476-46463c26625-11415 61954-17127 105977-17127h126368v67667h-119029c-34787 0-58149 5572-70106 16716s-17941 24868-17941 41172c0 18473 7339 33151 22017 44023 14668 10873 35048 16304 61141 16304 24998 0 47417-5713 67255-17117 19838-11415 34104-28261 42799-50549l17127 61141q-14683.5 38326.5-52587 59514c-25270 14136-57205 21193-95787 21193" class="fil8"/><path id="_9" d="M8604036 4679133c-47828 0-84784-12359-110877-37086-26093-24737-39134-61281-39134-109652v-390508h101911v388059c0 20651 5301 36685 15893 48099 10602 11415 25410 17117 44435 17117 22830 0 41845-5974 57065-17931l28532 72556c-11957 9789-26625 17117-44023 22017-17389 4889-35329 7329-53802 7329m-221754-356263v-81521h290233v81521z" class="fil8"/><path id="_10" d="M8785832 4673431v-435345h101901v435345zm51362-507088c-19025 0-34657-5974-46885-17931s-18342-26364-18342-43210c0-17399 6114-31936 18342-43622s27860-17519 46885-17519c19015 0 34646 5562 46875 16706q18342 16716 18342 41985c0 17941-5984 33020-17941 45248s-27719 18342-47276 18342z" class="fil8"/><path id="_11" d="M9217101 4679133c-44566 0-84242-9638-119029-28934s-62235-45790-82344-79493c-20109-33693-30159-72014-30159-114943 0-43481 10050-81933 30159-115364 20109-33422 47557-59645 82344-78670s74463-28532 119029-28532c45108 0 85196 9507 120244 28532 35058 19025 62506 45108 82344 78268 19838 33151 29757 71743 29757 115766 0 42929-9919 81250-29757 114943-19838 33703-47286 60197-82344 79493-35048 19296-75136 28934-120244 28934m0-87224c24998 0 47286-5441 66843-16304 19567-10873 34928-26635 46061-47286 11144-20651 16716-44847 16716-72556 0-28271-5572-52587-16716-72967-11134-20380-26494-36012-46061-46875-19557-10873-41574-16314-66030-16314-24998 0-47146 5441-66442 16314-19296 10863-34646 26494-46061 46875-11415 20380-17127 44696-17127 72967 0 27709 5713 51904 17127 72556 11415 20651 26765 36413 46061 47286 19296 10863 41172 16304 65629 16304" class="fil8"/><path id="_12" d="M9794305 4233197c34777 0 65900 6797 93338 20380 27448 13584 49053 34375 64815 62366 15762 27990 23643 64002 23643 108026v249463h-101901v-236421c0-38592-9106-67396-27318-86420-18202-19025-43612-28532-76220-28532-23914 0-45118 4889-63591 14678-18483 9779-32749 24316-42799 43612-10060 19296-15089 43622-15089 72967v220117h-101901v-435345h97012v117392l-17117-35871c15220-27709 37367-49043 66442-63992s62637-22418 100687-22418z" class="fil8"/><path id="_13" d="M10517423 4681583c-44566 0-87224-6385-127994-19155-40761-12770-73098-29215-97012-49324l36685-82344c22830 17941 51091 32890 84794 44847 33693 11957 68209 17931 103528 17931 29898 0 54083-3263 72566-9779 18473-6526 32066-15361 40761-26504 8694-11134 13041-23774 13041-37909 0-17389-6255-31384-18754-41985-12499-10592-28663-19015-48501-25270-19838-6245-41855-12088-66040-17529-24185-5431-48371-11817-72556-19155-24185-7339-46202-16846-66030-28532-19838-11686-36012-27318-48511-46875-12499-19567-18754-44576-18754-75005 0-30982 8293-59384 24868-85196s41845-46473 75819-61964c33964-15481 77044-23232 129219-23232 34235 0 68209 4347 101901 13041 33703 8704 63048 21204 88047 37508l-33422 82334c-25541-15210-51904-26494-79082-33833-27177-7329-53260-11003-78258-11003-29356 0-53129 3534-71341 10602-18202 7068-31524 16304-39947 27719s-12630 24456-12630 39134q0 26083.5 18342 41985c12228 10592 28261 18884 48099 24858 19838 5984 41985 11827 66442 17529 24456 5713 48772 12098 72967 19155 24185 7068 46192 16314 66030 27719q29757 17122.5 48099 46473c12228 19567 18342 44294 18342 74192 0 30430-8283 58561-24868 84372-16575 25822-41985 46473-76220 61964-34245 15491-77455 23232-129631 23232z" class="fil8"/><path id="_14" d="M11048154 4679133c-48371 0-90627-9638-126769-28934s-64133-45790-83971-79493c-19838-33693-29757-72014-29757-114943 0-43481 9648-81933 28934-115364 19296-33422 45931-59645 79895-78670 33974-19025 72696-28532 116178-28532 42397 0 80166 9236 113316 27719 33161 18473 59243 44566 78268 78258 19025 33703 28532 73379 28532 119029 0 4347-131 9236-402 14678-281 5431-683 10592-1225 15491h-362789v-67667h308977l-39947 21193c542-24998-4618-47015-15491-66030-10863-19025-25681-33974-44425-44847-18754-10863-40359-16304-64815-16304-24998 0-46875 5441-65629 16304-18754 10873-33422 25952-44023 45248-10602 19296-15893 41985-15893 68078v16304c0 26083 5974 49184 17931 69293s28803 35600 50549 46473c21736 10863 46734 16304 75005 16304 24456 0 46463-3805 66030-11415s36956-19567 52176-35871l54625 62777c-19567 22820-44164 40349-73781 52577-29627 12228-63460 18342-101500 18342z" class="fil8"/><path id="_15" d="M11350616 4673431v-435345h97012v119842l-11415-35058c13041-29346 33562-51633 61552-66843 27990-15220 62908-22830 104763-22830v97012c-4347-1084-8423-1767-12228-2038s-7610-402-11415-402c-38592 0-69293 11274-92123 33823-22830 22559-34245 56121-34245 100687v211152z" class="fil8"/><path id="_16" d="m11821019 4673431-186696-435345h105978l160613 383983h-52176l166305-383983h97836l-186696 435345z" class="fil8"/><path id="_17" d="M12176469 4673431v-435345h101901v435345zm51362-507088c-19025 0-34657-5974-46885-17931s-18342-26364-18342-43210c0-17399 6114-31936 18342-43622s27860-17519 46885-17519c19015 0 34646 5562 46875 16706q18342 16716 18342 41985c0 17941-5984 33020-17941 45248s-27719 18342-47276 18342z" class="fil8"/><path id="_18" d="M12611814 4679133c-45660 0-86280-9638-121880-28934s-63460-45790-83569-79493c-20109-33693-30159-72014-30159-114943 0-43481 10050-81933 30159-115364 20109-33422 47969-59645 83569-78670s76220-28532 121880-28532c42387 0 79754 8554 112092 25681 32337 17117 56934 42256 73781 75407l-78258 45660c-13051-20661-28944-35871-47698-45660-18744-9779-38994-14678-60729-14678-25009 0-47557 5441-67667 16314-20109 10863-35871 26494-47286 46875-11415 20380-17127 44696-17127 72967 0 28261 5713 52577 17127 72957 11415 20380 27177 36012 47286 46885 20109 10863 42658 16304 67667 16304 21736 0 41985-4899 60729-14678 18754-9789 34646-24998 47698-45650l78258 45650c-16846 32608-41443 57747-73781 75407-32337 17670-69705 26494-112092 26494z" class="fil8"/><path id="_19" d="M13083844 4679133c-48371 0-90627-9638-126769-28934s-64133-45790-83971-79493c-19838-33693-29757-72014-29757-114943 0-43481 9648-81933 28934-115364 19296-33422 45931-59645 79895-78670 33974-19025 72696-28532 116178-28532 42397 0 80166 9236 113316 27719 33161 18473 59243 44566 78268 78258 19025 33703 28532 73379 28532 119029 0 4347-131 9236-402 14678-281 5431-683 10592-1225 15491h-362789v-67667h308977l-39947 21193c542-24998-4618-47015-15491-66030-10863-19025-25681-33974-44425-44847-18754-10863-40359-16304-64815-16304-24998 0-46875 5441-65629 16304-18754 10873-33422 25952-44023 45248-10602 19296-15893 41985-15893 68078v16304c0 26083 5974 49184 17931 69293s28803 35600 50549 46473c21736 10863 46734 16304 75005 16304 24456 0 46463-3805 66030-11415s36956-19567 52176-35871l54625 62777c-19567 22820-44164 40349-73781 52577-29627 12228-63460 18342-101500 18342z" class="fil8"/><path id="_20" d="M13520815 4679133c-36413 0-71331-4749-104753-14266-33432-9507-59926-21053-79493-34646l39134-77445c19567 12499 42939 22830 70116 30982 27167 8152 54344 12228 81521 12228 32066 0 55298-4347 69705-13051 14407-8694 21605-20380 21605-35048 0-11957-4889-21063-14678-27318-9779-6245-22549-11003-38311-14266s-33291-6245-52587-8965c-19296-2721-38592-6385-57888-11003-19286-4618-36815-11415-52577-20380-15762-8975-28532-21063-38321-36283-9779-15220-14668-35329-14668-60328 0-27719 7881-51774 23633-72154 15762-20380 37909-36142 66452-47276 28532-11144 62366-16716 101490-16716 29356 0 58972 3263 88870 9779 29888 6526 54615 15762 74182 27719l-39134 77455c-20651-12509-41433-21063-62366-25681-20922-4618-41714-6937-62366-6937-30972 0-53943 4628-68881 13865-14949 9236-22428 20922-22428 35058 0 13041 4899 22820 14678 29346 9789 6526 22559 11686 38321 15491s33291 6927 52577 9377c19296 2440 38451 6114 57476 11003s36554 11545 52587 19979c16033 8423 28944 20240 38723 35460 9789 15220 14678 35058 14678 59514 0 27177-8022 50810-24055 70929-16033 20109-38723 35731-68068 46875-29356 11144-64404 16706-105174 16706z" class="fil8"/><path d="M8732281 5820771v-388601h169869c42196 0 79202 8142 111037 24426 31825 16284 56623 38863 74383 67727 17770 28864 26645 62918 26645 102142 0 38863-8875 72817-26645 101871-17760 29054-42558 51724-74383 68008-31835 16284-68841 24426-111037 24426h-169869zm72164-61071h94382c29235 0 54495-5552 75779-16646 21274-11104 37749-26655 49405-46634 11656-19989 17489-43301 17489-69956 0-27016-5833-50419-17489-70227-11656-19798-28131-35249-49405-46353-21284-11104-46543-16656-75779-16656h-94382v266470z" class="fil9"/><path id="_1_0" d="M9184161 5820771v-296448h66060v81601l-7771-23864c8885-19989 22860-35159 41915-45529 19065-10361 42839-15541 71341-15541v66060c-2962-733-5743-1195-8333-1385-2590-181-5180-281-7771-281-26274 0-47186 7680-62727 23041-15551 15361-23322 38211-23322 68560v143786h-69393z" class="fil9"/><path id="_2_1" d="M9414549 5820771v-296448h69393v296448zm34978-345300c-12951 0-23593-4076-31926-12218-8323-8142-12489-17951-12489-29416 0-11847 4166-21746 12489-29707 8333-7951 18975-11937 31926-11937s23593 3795 31916 11385c8333 7590 12499 17117 12499 28593 0 12208-4076 22479-12218 30811-8142 8323-18874 12489-32197 12489" class="fil9"/><path id="_3_2" d="m9653821 5820771-127121-296448h72165l109360 261470h-35530l113257-261470h66612l-127131 296448z" class="fil9"/><path id="_4_3" d="M10026891 5824656c-32940 0-61723-6566-86330-19708s-43672-31183-57175-54123c-13513-22950-20270-49043-20270-78278 0-29607 6576-55790 19708-78549 13142-22770 31273-40620 54404-53571 23131-12961 49505-19437 79112-19437 28864 0 54585 6295 77164 18874 22579 12590 40339 30350 53300 53300 12951 22940 19427 49957 19427 81049 0 2962-90 6295-281 9989-181 3705-462 7218-833 10552h-247033v-46082h210399l-27207 14437c371-17027-3142-32016-10542-44967-7409-12951-17489-23131-30259-30530-12770-7409-27478-11104-44134-11104-17027 0-31926 3695-44686 11104-12770 7399-22770 17670-29978 30811-7218 13132-10833 28583-10833 46353v11104c0 17760 4076 33492 12218 47186s19617 24235 34416 31645c14808 7399 31835 11104 51071 11104 16656 0 31645-2590 44967-7771 13333-5190 25169-13333 35530-24426l37197 42738c-13322 15551-30068 27478-50238 35811-20169 8323-43210 12489-69112 12489z" class="fil9"/><path id="_5_4" d="M10401055 5520990c23683 0 44877 4628 63560 13885 18694 9246 33402 23402 44134 42467 10732 19055 16103 43572 16103 73550v169879h-69393v-160994c0-26274-6204-45891-18593-58842-12399-12951-29707-19437-51915-19437-16284 0-30711 3333-43301 9999-12580 6656-22298 16555-29145 29697s-10270 29697-10270 49686v149890h-69393v-296448h66060v79945l-11656-24426c10361-18884 25450-33402 45248-43582s42648-15270 68560-15270z" class="fil9"/><path id="_6_5" d="M10930671 5824656c-25169 0-47557-5552-67175-16656q-29425.5-16656-46353-50238c-11284-22388-16937-50800-16937-85216 0-34787 5833-63289 17489-85497 11656-22197 27388-38763 47186-49686 19808-10913 41734-16375 65789-16375 29235 0 55047 6295 77445 18874 22388 12590 40148 30169 53290 52738 13142 22579 19708 49224 19708 79945s-6566 57366-19708 79945c-13142 22569-30902 40249-53290 53009-22398 12770-48210 19155-77445 19155zm-164327-3885v-411923h69393v184316l-5552 78831 2219 78831v69946h-66060zm156557-55519c16656 0 31544-3695 44686-11104 13142-7399 23593-18131 31364-32197 7771-14065 11666-30530 11666-49405 0-19246-3895-35811-11666-49686s-18222-24517-31364-31926c-13142-7399-28030-11094-44686-11094s-31645 3695-44967 11094c-13322 7409-23874 18051-31645 31926s-11656 30440-11656 49686c0 18874 3885 35339 11656 49405 7771 14065 18322 24798 31645 32197 13322 7409 28312 11104 44967 11104" class="fil9"/><path id="_7_6" d="M11163278 5932350c-14427 0-28864-2399-43301-7208-14427-4819-26464-11475-36082-19989l27759-51071c7028 6285 14989 11284 23864 14989 8885 3695 17951 5552 27207 5552 12580 0 22760-3152 30530-9437 7771-6295 14989-16846 21655-31645l17208-38863 5552-8323 112142-262032h66612l-138787 320322c-9246 22207-19517 39787-30811 52738-11284 12951-23864 22017-37749 27197-13875 5180-29145 7771-45800 7771zm61071-101028-133787-306999h72164l108809 255918z" class="fil9"/><path id="_8_7" d="m11702331 5820771-126016-388601h113246l106038 336415h-57186l111590-336415h101038l105476 336415h-54967l109371-336415h104923l-126016 388601h-117694l-89934-285896h31644l-93819 285896z" class="fil10"/><path id="_9_8" d="M12454555 5514886c23312 0 44405 4719 63279 14156s33773 23964 44696 43582c10913 19607 16375 44967 16375 76050v172098h-105476v-154890c0-21465-4357-37096-13051-46905s-20812-14708-36363-14708c-11104 0-21274 2490-30530 7490s-16465 12680-21655 23041c-5180 10361-7771 23874-7771 40520v145453h-105476v-411923h105476v196524l-24426-24978c11475-21836 27207-38211 47186-49134 19989-10913 42568-16375 67737-16375z" class="fil10"/><path id="_10_9" d="M12828719 5820771v-56071l-7218-13875v-103257c0-16656-5090-29516-15260-38582-10180-9076-26374-13604-48581-13604-14437 0-29054 2309-43853 6937-14808 4628-27388 11013-37749 19155l-35530-71612c17017-11104 37468-19708 61342-25822 23874-6104 47648-9156 71331-9156 48852 0 86702 11194 113527 33582 26836 22398 40249 57456 40249 105204v167098h-98257zm-88820 5000c-24055 0-44415-4076-61071-12218s-29326-19246-38030-33311c-8694-14055-13041-29787-13041-47186 0-18503 4719-34506 14156-48019 9437-13503 23964-23874 43582-31082 19607-7218 44967-10833 76050-10833h71060v54967h-56623c-17027 0-28964 2771-35811 8323s-10270 12951-10270 22207c0 9246 3524 16656 10552 22207 7028 5552 16656 8323 28864 8323 11475 0 21936-2871 31374-8604 9437-5733 16375-14527 20812-26374l14437 38863c-5552 20732-16375 36363-32478 46915-16103 10542-37287 15822-63560 15822z" class="fil10"/><path id="_11_10" d="M13127947 5825771c-38492 0-68470-9538-89934-28593-21465-19065-32197-47838-32197-86330v-258137h105476v257033c0 10732 2962 19155 8885 25260 5913 6104 13503 9156 22760 9156 12580 0 23312-3142 32197-9437l26093 73831c-8885 5923-19798 10270-32759 13051-12951 2771-26454 4166-40520 4166zm-165994-215951v-78841h218180v78841z" class="fil10"/><path id="_12_11" d="M13351107 5825771c-25531 0-50419-2962-74664-8885-24246-5923-43762-13322-58571-22207l31645-72164c14065 8503 30530 15260 49415 20260 18874 5000 37377 7490 55509 7490 17770 0 30068-1847 36915-5552 6847-3695 10270-8694 10270-14989 0-5913-3233-10270-9708-13041-6476-2771-14989-4899-25541-6385-10552-1476-22117-3142-34697-5000-12580-1847-25260-4347-38030-7490-12770-3142-24426-7961-34968-14437-10552-6476-18975-15260-25260-26364-6295-11104-9437-25169-9437-42196 0-19246 5642-36363 16927-51352 11284-14989 27850-26826 49686-35530 21836-8694 48481-13041 79945-13041 21093 0 42467 2128 64113 6385 21655 4257 39887 10642 54685 19155l-31645 71612c-14798-8514-29607-14347-44405-17489-14808-3142-28874-4719-42196-4719-17760 0-30259 2038-37468 6104-7218 4076-10833 9066-10833 14989s3152 10461 9437 13604c6295 3142 14718 5552 25260 7218 10552 1667 22117 3323 34697 4990 12590 1667 25260 4166 38030 7500 12770 3333 24426 8232 34978 14708 10542 6476 18965 15180 25260 26093 6285 10923 9437 24888 9437 41915 0 18503-5642 35159-16937 49967-11284 14798-27940 26645-49957 35530-22027 8875-49324 13322-81893 13322z" class="fil10"/><path id="_13_12" d="m13503778 5820771 171536-388601h108256l172098 388601h-114361l-134349-334749h43301l-134339 334749zm93820-75497 28312-81049h189858l28312 81049h-246481z" class="fil10"/><path id="_14_13" d="M14171067 5825771c-25541 0-47377-5652-65508-16937-18131-11284-31916-28312-41353-51071-9447-22760-14166-51904-14166-87434 0-35901 4448-65227 13333-87997 8875-22760 22298-39686 40249-50790 17941-11104 40429-16656 67446-16656q41082 0 74664 19155c22398 12760 40158 30711 53300 53842 13132 23131 19708 50609 19708 82445 0 31825-6576 59394-19708 82716-13142 23312-30902 41263-53300 53852-22388 12580-47276 18874-74664 18874zm-189306 102695v-408580h100486v51071l-562 99371 5552 99924v158213h-105476zm167098-186525c11847 0 22489-2781 31926-8323 9437-5552 17017-13694 22760-24426 5733-10742 8604-23693 8604-38863 0-15180-2871-28131-8604-38863-5743-10732-13322-18874-22760-24426-9437-5552-20079-8323-31926-8323-11837 0-22479 2771-31916 8323q-14155.5 8328-22770 24426c-5733 10732-8604 23683-8604 38863 0 15170 2871 28121 8604 38863q8614.5 16098 22770 24426c9437 5542 20079 8323 31916 8323" class="fil10"/><path id="_15_14" d="M14556897 5825771c-25541 0-47377-5652-65508-16937-18131-11284-31916-28312-41353-51071-9447-22760-14166-51904-14166-87434 0-35901 4448-65227 13333-87997 8875-22760 22298-39686 40249-50790 17941-11104 40429-16656 67446-16656q41082 0 74664 19155c22398 12760 40158 30711 53300 53842 13132 23131 19708 50609 19708 82445 0 31825-6576 59394-19708 82716-13142 23312-30902 41263-53300 53852-22388 12580-47276 18874-74664 18874zm-189306 102695v-408580h100486v51071l-562 99371 5552 99924v158213h-105476zm167098-186525c11847 0 22489-2781 31926-8323 9437-5552 17017-13694 22760-24426 5733-10742 8604-23693 8604-38863 0-15180-2871-28131-8604-38863-5743-10732-13322-18874-22760-24426-9437-5552-20079-8323-31926-8323-11837 0-22479 2771-31916 8323q-14155.5 8328-22770 24426c-5733 10732-8604 23683-8604 38863 0 15170 2871 28121 8604 38863q8614.5 16098 22770 24426c9437 5542 20079 8323 31916 8323" class="fil10"/><path d="M-5-5h16990444v7249851H-5z" style="fill:none"/></g></svg>