<svg xmlns="http://www.w3.org/2000/svg" xml:space="preserve" width="386.449" height="47.234" style="shape-rendering:geometricPrecision;text-rendering:geometricPrecision;image-rendering:optimizeQuality;fill-rule:evenodd;clip-rule:evenodd" viewBox="0 0 6210604 759094"><path d="M0 750615V8480h106023v742135zm328662 0V8480h86938l332901 560843h-46649L1030508 8480h86938l1057 742135h-101777l-1057-582047h24381L747438 660500h-48769L403937 168568h26501v582047H328661zm900104 0L1564850 8480h104960l337141 742135h-111319L1595597 67854h42403l-300035 682761h-109200zm143129-185532 28627-84818h417713l30747 84818zm1069734 194012c-57248 0-109904-9360-157968-28093-48064-18732-89763-45234-125101-79516-35339-34276-62909-74389-82698-120333-19789-45938-29684-96474-29684-151603 0-55134 9895-105671 29684-151609 19789-45944 47536-86051 83227-120333s77572-60783 125636-79516C2332783 9366 2385791-1 2443750-1c58663 0 112382 9542 161151 28627 48769 19079 90115 47706 124038 85875l-65727 65727q-45592.5-44526-99129-65199c-35691-13782-74389-20676-116094-20676-42403 0-81812 7070-118207 21205-36402 14134-67853 33930-94361 59374-26501 25444-47001 55657-61488 90643-14493 34987-21733 72980-21733 113974 0 40283 7240 77924 21733 112911 14487 34981 34987 65375 61488 91172 26507 25803 57783 45768 93826 59902 36050 14134 75276 21205 117685 21205 39579 0 77572-6183 113968-18556 36402-12367 70149-33043 101249-62016l60431 80572c-36754 31099-79692 54600-128813 70502s-99833 23853-152137 23853zm179173-108137V375305h101777v289435zm400755-322302h381664v90121h-381664zm9542 329725h432552v92235h-538575V8481h523736v92241h-417713v557660z" style="fill:#00a3e0;fill-rule:nonzero"/><path d="M4255612 759094c-56543 0-109023-9542-157440-28621-48416-19085-90291-45768-125630-80044-35339-34282-62909-74395-82698-120333-19789-45944-29684-96122-29684-150546s9895-104608 29684-150552c19789-45938 47359-86051 82698-120327 35339-34282 77037-60965 125101-80044C4145707 9542 4198363 0 4255611 0c56543 0 108671 9366 156377 28093 47712 18732 89410 45234 125101 79516 35697 34282 63261 74389 82698 120333 19437 45938 29156 96474 29156 151609 0 55128-9719 105664-29156 151603-19437 45944-47001 86057-82698 120333-35691 34282-77390 60783-125101 79516-47706 18732-99833 28093-156377 28093zm0-94355c40994 0 78987-7070 113974-21205 34981-14134 65375-34100 91172-59902 25803-25797 45944-56009 60431-90643 14493-34634 21733-72445 21733-113439s-7240-78811-21733-113445c-14487-34628-34628-64847-60431-90643-25797-25797-56191-45768-91172-59902-34987-14134-72980-21205-113974-21205-41698 0-80044 7070-115031 21205-34987 14134-65557 34106-91706 59902-26149 25797-46473 56015-60959 90643-14493 34634-21733 72451-21733 113445s7240 78805 21733 113439c14487 34634 34810 64847 60959 90643 26149 25803 56720 45768 91706 59902 34987 14134 73332 21205 115031 21205m555540 85875V8479h86938l490870 609611h-45592V8479h106023v742135h-86938l-490870-609611h45592v609611zm957358-421959h381664v90121h-381664zm9542 329725h432552v92235h-538575V8480h523736v92241h-417713v557660z" style="fill:#003082;fill-rule:nonzero"/></svg>