<svg xmlns="http://www.w3.org/2000/svg" xml:space="preserve" width="940.815" height="75.451" style="shape-rendering:geometricPrecision;text-rendering:geometricPrecision;image-rendering:optimizeQuality;fill-rule:evenodd;clip-rule:evenodd" viewBox="0 0 24545484 1968486"><defs><style>.fil0,.fil1{fill:#003082;fill-rule:nonzero}.fil1{fill:#00a3e0}</style></defs><g id="Capa_x0020_1"><path d="M0 1946487V21999h225443l1272908 1580825h-118219V21999h274934v1924488h-225443L156715 365661h118219v1580826z" class="fil0"/><path id="_1" d="M3101175 1968486c-146627 0-282714-24750-408259-74231-125555-49490-234150-118682-325795-207576s-163124-192903-214439-312039c-51325-119136-76982-249267-76982-390402 0-141125 25657-271256 76982-390392 51315-119136 122794-223146 214439-312039 91645-88894 199786-158085 324414-207576C2816173 24750 2952713 0 3101175 0c146627 0 281807 24287 405518 72860 123721 48573 231853 117302 324414 206195 92562 88894 164041 192903 214449 312039 50398 119136 75601 250184 75601 393143 0 142969-25204 274017-75601 393153-50407 119136-121887 223146-214449 312039-92562 88894-200693 157622-324414 206195-123711 48573-258891 72860-405518 72860zm0-244691c106307 0 204825-18331 295552-54983 90718-36662 169534-88440 236438-155334 66894-66894 119126-145257 156705-235067 37569-89801 56363-187865 56363-294172 0-106298-18794-204361-56363-294172-37579-89801-89811-168163-156705-235058-66904-66894-145720-118673-236438-155334-90728-36652-189245-54983-295552-54983-108132 0-207566 18331-298294 54983-90728 36662-169997 88440-237809 155334-67821 66894-120517 145257-158085 235058-37569 89811-56363 187874-56363 294172 0 106307 18794 204371 56363 294172 37569 89811 90264 168173 158085 235067 67811 66894 147081 118673 237809 155334 90728 36652 190162 54983 298294 54983" class="fil0"/><path id="_2" d="M5036668 1946487 4189887 21999h296923l778042 1776026h-170450L5877936 21999h274934l-844030 1924488z" class="fil0"/><path id="_3" d="M6045646 1946487 6917167 21999h272173l874272 1924488h-288670L6996890 175953h109976l-778043 1770534zm371154-481119 74231-219941h1083209l79733 219941z" class="fil0"/><path id="_4" d="M9182566 1968486c-146627 0-281807-24287-405518-72860-123721-48573-230936-117302-321663-206195-90728-88894-161754-192903-213068-312039-51325-119136-76982-250184-76982-393153 0-142959 25657-274007 76982-393143 51315-119136 122794-223146 214439-312039 91645-88894 199323-157622 323044-206195C8903511 24289 9038691 2 9185318 2c148462 0 285465 25204 411010 75611 125555 50398 232316 125092 320293 224063l-178704 173202c-73314-76982-155788-134252-247433-171831-91645-37569-189699-56353-294172-56353-108141 0-208483 18331-301045 54983-92562 36662-172748 87976-240560 153964-67821 65977-120517 144330-158085 235058-37569 90728-56363 189245-56363 295543 0 106307 18794 204825 56363 295552 37569 90728 90264 169080 158085 235058 67811 65987 147998 117302 240560 153964 92562 36652 192903 54983 301045 54983 104473 0 202527-18784 294172-56363 91645-37569 174119-95766 247433-174572l178704 173202c-87976 98971-194737 174119-320293 225443-125545 51315-263466 76982-413762 76982z" class="fil0"/><path id="_5" d="M10309763 1946487V21999h274934v1685299h1041972v239189z" class="fil0"/><path id="_6" d="M11942830 1946487V21999h274934v1924488z" class="fil0"/><path id="_7" d="M12795104 1946487V21999h225443l1272908 1580825h-118219V21999h274933v1924488h-225443L12951818 365661h118219v1580826z" class="fil0"/><path id="_8" d="M15027509 1946487V21999h274934v1924488z" class="fil0"/><path id="_9" d="M16740309 1968486c-146627 0-281807-24287-405518-72860-123721-48573-230936-117302-321663-206195-90728-88894-161754-192903-213068-312039-51325-119136-76982-250184-76982-393153 0-142959 25657-274007 76982-393143 51315-119136 122794-223146 214439-312039 91645-88894 199323-157622 323044-206195C16461254 24289 16596434 2 16743061 2c148462 0 285465 25204 411010 75611 125555 50398 232316 125092 320293 224063l-178704 173202c-73314-76982-155788-134252-247433-171831-91645-37569-189699-56353-294172-56353-108141 0-208483 18331-301045 54983-92562 36662-172748 87976-240560 153964-67821 65977-120517 144330-158085 235058-37569 90728-56363 189245-56363 295543 0 106307 18794 204825 56363 295552 37569 90728 90264 169080 158085 235058 67811 65987 147998 117302 240560 153964 92562 36652 192903 54983 301045 54983 104473 0 202527-18784 294172-56363 91645-37569 174119-95766 247433-174572l178704 173202c-87976 98971-194737 174119-320293 225443-125545 51315-263466 76982-413762 76982z" class="fil0"/><path id="_10" d="M19475833 1968486c-146627 0-282714-24750-408259-74231-125555-49490-234150-118682-325795-207576s-163124-192903-214439-312039c-51325-119136-76982-249267-76982-390402 0-141125 25657-271256 76982-390392 51315-119136 122794-223146 214439-312039 91645-88894 199786-158085 324414-207576C19190831 24750 19327371 0 19475833 0c146627 0 281807 24287 405518 72860 123721 48573 231853 117302 324414 206195 92562 88894 164041 192903 214449 312039 50398 119136 75601 250184 75601 393143 0 142969-25204 274017-75601 393153-50407 119136-121887 223146-214449 312039-92562 88894-200693 157622-324414 206195-123711 48573-258891 72860-405518 72860zm0-244691c106307 0 204825-18331 295552-54983 90718-36662 169534-88440 236438-155334 66894-66894 119126-145257 156705-235067 37569-89801 56363-187865 56363-294172 0-106298-18794-204361-56363-294172-37579-89801-89811-168163-156705-235058-66904-66894-145720-118673-236438-155334-90728-36652-189245-54983-295552-54983-108132 0-207566 18331-298294 54983-90728 36662-169997 88440-237809 155334-67821 66894-120517 145257-158085 235058-37569 89811-56363 187874-56363 294172 0 106307 18794 204371 56363 294172 37569 89811 90264 168173 158085 235067 67811 66894 147081 118673 237809 155334 90728 36652 190162 54983 298294 54983" class="fil1"/><path id="_11" d="M20916450 1946487V21999h225443l1272908 1580825h-118219V21999h274934v1924488h-225444L21073165 365661h118219v1580826z" class="fil1"/><path id="_12" d="M23399039 852273h989740v233697h-989740zm24750 855024h1121695v239189h-1396629V21998h1358143v239189h-1083209z" class="fil1"/></g></svg>