<?xml version="1.0" encoding="UTF-8"?>
<!DOCTYPE svg PUBLIC "-//W3C//DTD SVG 1.1//EN" "http://www.w3.org/Graphics/SVG/1.1/DTD/svg11.dtd">
<!-- Creator: CorelDRAW -->
<svg xmlns="http://www.w3.org/2000/svg" xml:space="preserve" width="33.7424mm" height="34.7868mm" version="1.1" style="shape-rendering:geometricPrecision; text-rendering:geometricPrecision; image-rendering:optimizeQuality; fill-rule:evenodd; clip-rule:evenodd"
viewBox="0 0 10659 10989"
 xmlns:xlink="http://www.w3.org/1999/xlink"
 xmlns:xodm="http://www.corel.com/coreldraw/odm/2003">
 <defs>
  <style type="text/css">
   <![CDATA[
    .fil1 {fill:#004FA2}
    .fil0 {fill:#6096FF}
   ]]>
  </style>
 </defs>
 <g id="Capa_x0020_1">
  <metadata id="CorelCorpID_0Corel-Layer"/>
  <path class="fil0" d="M1362 8480c306,750 675,1522 1028,2022 142,202 549,711 901,368 355,-346 719,-1618 905,-2175 249,-743 1059,-2017 1838,-1087 310,370 727,1744 934,2358 121,358 428,1190 897,993 1589,-893 3425,-7279 2580,-9742 -1723,70 -3960,1506 -5521,3955 -1003,1574 -2276,2673 -3562,3308z"/>
  <path class="fil1" d="M6005 760l-338 88c-59,12 -78,6 -119,37 -120,-19 -317,36 -669,-16 -623,-92 -1106,-393 -1673,-637 -1256,-540 -2610,-130 -3032,1207 -122,387 -174,810 -174,1250 0,1378 474,3232 893,4517 48,146 102,304 161,469 1134,-464 2315,-1513 3494,-3362 1473,-2310 3528,-3598 5349,-3895 -245,-173 -510,-293 -870,-361 -1128,-213 -2009,400 -3020,704z"/>
 </g>
</svg>
