<?xml version="1.0" encoding="UTF-8"?>
<!DOCTYPE svg PUBLIC "-//W3C//DTD SVG 1.1//EN" "http://www.w3.org/Graphics/SVG/1.1/DTD/svg11.dtd">
<!-- Creator: CorelDRAW -->
<svg xmlns="http://www.w3.org/2000/svg" xml:space="preserve" width="148.892mm" height="45.3936mm" version="1.1" style="shape-rendering:geometricPrecision; text-rendering:geometricPrecision; image-rendering:optimizeQuality; fill-rule:evenodd; clip-rule:evenodd"
viewBox="0 0 148749 45350"
 xmlns:xlink="http://www.w3.org/1999/xlink"
 xmlns:xodm="http://www.corel.com/coreldraw/odm/2003">
 <defs>
  <style type="text/css">
   <![CDATA[
    .fil0 {fill:none}
    .fil2 {fill:black}
    .fil1 {fill:black;fill-rule:nonzero}
   ]]>
  </style>
 </defs>
 <g id="Capa_x0020_1">
  <metadata id="CorelCorpID_0Corel-Layer"/>
  <g id="_2398639135232">
   <rect class="fil0" width="148749" height="45350"/>
   <g>
    <path class="fil1" d="M53139 34539c-1422,0 -2691,-314 -3808,-942 -1117,-628 -1999,-1505 -2645,-2631 -646,-1126 -969,-2437 -969,-3933 0,-1495 323,-2802 969,-3919 646,-1117 1528,-1989 2645,-2617 1117,-628 2386,-941 3808,-941 1237,0 2354,277 3351,831 997,554 1795,1385 2396,2493 600,1108 900,2492 900,4154 0,1662 -291,3046 -872,4154 -582,1108 -1371,1943 -2368,2506 -997,563 -2132,845 -3406,845zm222 -2326c923,0 1759,-212 2506,-637 748,-425 1339,-1029 1773,-1814 434,-785 651,-1694 651,-2728 0,-1052 -217,-1962 -651,-2728 -434,-766 -1025,-1362 -1773,-1786 -748,-425 -1583,-637 -2506,-637 -942,0 -1782,212 -2520,637 -738,425 -1329,1020 -1772,1786 -443,766 -665,1676 -665,2728 0,1034 222,1943 665,2728 443,785 1034,1389 1772,1814 738,425 1579,637 2520,637zm5013 2160l0 -3960 166 -3406 -277 -3406 0 -9776 2659 0 0 20549 -2548 0zm14720 166c-1569,0 -2949,-323 -4140,-969 -1191,-646 -2114,-1532 -2769,-2659 -655,-1126 -983,-2419 -983,-3877 0,-1459 318,-2751 955,-3877 637,-1126 1514,-2008 2631,-2645 1117,-637 2377,-955 3780,-955 1422,0 2677,314 3766,941 1089,628 1943,1509 2562,2645 619,1136 928,2460 928,3974 0,111 -5,240 -14,388 -9,148 -23,286 -41,415l-12490 0 0 -1911 11105 0 -1080 665c18,-942 -175,-1782 -582,-2520 -406,-739 -965,-1316 -1675,-1731 -711,-416 -1537,-623 -2479,-623 -923,0 -1745,208 -2465,623 -720,415 -1283,997 -1689,1745 -406,748 -609,1602 -609,2562l0 443c0,979 226,1851 679,2617 452,766 1085,1362 1897,1786 812,425 1745,637 2797,637 868,0 1657,-148 2368,-443 711,-295 1334,-738 1869,-1329l1468 1717c-665,775 -1491,1366 -2479,1773 -988,406 -2091,609 -3309,609zm18847 -14983c1200,0 2257,231 3171,692 914,461 1629,1163 2146,2105 517,942 776,2133 776,3573l0 8447 -2659 0 0 -8142c0,-1422 -346,-2493 -1039,-3213 -692,-720 -1666,-1080 -2922,-1080 -942,0 -1763,185 -2465,554 -702,369 -1242,914 -1620,1634 -379,720 -568,1615 -568,2686l0 7561 -2659 0 0 -14678 2548 0 0 3960 -416 -1052c480,-960 1219,-1708 2216,-2243 997,-535 2160,-803 3490,-803zm16659 14983c-1477,0 -2622,-397 -3434,-1191 -812,-794 -1219,-1929 -1219,-3406l0 -13459 2659 0 0 13349c0,794 199,1403 595,1828 397,425 965,637 1703,637 831,0 1523,-231 2077,-692l831 1911c-406,351 -891,609 -1454,775 -563,166 -1149,249 -1759,249zm-7145 -12656l0 -2188 9361 0 0 2188 -9361 0z"/>
    <path class="fil1" d="M116007 34373l0 -19386 2769 0 0 19386 -2769 0zm6246 0l8779 -19386 2742 0 8807 19386 -2908 0 -7837 -17835 1108 0 -7837 17835 -2853 0zm3739 -4847l748 -2215 10912 0 803 2215 -12462 0z"/>
    <path class="fil2" d="M10477 32118c967,2371 2134,4815 3250,6394 450,637 1737,2250 2851,1165 1124,-1095 2273,-5116 2863,-6879 787,-2348 3350,-6378 5813,-3437 981,1171 2298,5515 2953,7457 382,1131 1353,3764 2838,3139 5027,-2825 10832,-23022 8159,-30811 -5448,223 -12524,4762 -17463,12510 -3172,4978 -7200,8454 -11265,10462z"/>
    <path class="fil2" d="M25161 7701l-1068 278c-188,38 -246,20 -376,116 -380,-61 -1002,113 -2116,-51 -1971,-290 -3499,-1244 -5293,-2016 -3974,-1709 -8253,-413 -9589,3817 -387,1224 -550,2563 -550,3952 0,4358 1498,10222 2823,14287 150,462 321,961 509,1483 3587,-1468 7323,-4785 11049,-10632 4657,-7305 11158,-11379 16916,-12320 -773,-547 -1613,-926 -2752,-1141 -3568,-673 -6352,1266 -9552,2227z"/>
   </g>
  </g>
 </g>
</svg>
